<svg id="svg" version="1.1" xmlns="http://www.w3.org/2000/svg" xmlns:xlink="http://www.w3.org/1999/xlink" width="400" height="152.85333333333335" viewBox="0, 0, 400,152.85333333333335"><g id="svgg"><path id="path0" d="M174.988 22.695 C 174.674 23.077,174.117 23.740,173.750 24.167 C 172.998 25.044,172.778 25.306,171.515 26.833 C 171.022 27.429,170.574 27.954,170.518 28.000 C 170.462 28.046,170.117 28.458,169.751 28.917 C 169.385 29.375,168.924 29.938,168.728 30.167 C 168.029 30.981,167.073 32.145,166.333 33.080 C 165.921 33.602,165.314 34.363,164.984 34.771 C 163.579 36.514,163.413 38.000,164.622 38.000 C 165.434 38.000,180.957 30.212,181.120 29.723 C 181.200 29.484,178.802 26.026,176.709 23.363 C 176.229 22.751,175.835 22.194,175.834 22.125 C 175.832 21.836,175.524 22.044,174.988 22.695 M120.917 40.326 C 120.596 40.458,120.040 40.627,116.750 41.594 C 115.925 41.836,114.800 42.170,114.250 42.337 C 113.700 42.503,112.800 42.767,112.250 42.923 C 111.700 43.079,110.837 43.340,110.333 43.504 C 109.829 43.667,108.967 43.928,108.417 44.084 C 107.280 44.406,106.717 44.586,106.000 44.854 L 105.500 45.040 105.500 47.122 L 105.500 49.205 106.292 49.091 C 107.083 48.978,107.874 48.796,109.031 48.464 C 110.239 48.117,110.564 49.311,111.013 55.750 C 111.109 57.125,111.258 59.075,111.344 60.083 C 111.430 61.092,111.549 62.687,111.608 63.627 L 111.715 65.338 113.019 67.127 C 113.736 68.112,114.383 68.992,114.456 69.083 C 114.759 69.463,116.172 72.467,116.338 73.083 C 116.437 73.450,116.618 74.125,116.739 74.583 C 117.949 79.149,117.373 85.103,115.276 89.690 C 114.259 91.915,114.248 91.964,114.287 93.970 C 114.321 95.690,114.780 100.496,114.926 100.646 C 114.993 100.716,117.940 100.396,119.250 100.176 C 120.759 99.924,123.571 99.483,124.281 99.387 L 124.978 99.292 124.879 89.006 C 124.820 82.819,124.842 78.681,124.934 78.624 C 125.133 78.501,125.165 78.517,139.417 85.580 C 163.372 97.452,164.765 98.124,164.971 97.918 C 165.033 97.856,165.105 95.419,165.132 92.502 L 165.180 87.198 164.465 87.086 C 157.293 85.963,151.396 82.548,147.588 77.312 C 146.503 75.820,145.727 75.231,143.667 74.337 C 142.979 74.038,142.117 73.662,141.750 73.500 C 141.383 73.339,140.896 73.151,140.667 73.083 C 140.438 73.016,139.950 72.827,139.583 72.664 C 139.217 72.502,137.717 71.903,136.250 71.333 C 134.783 70.764,133.283 70.166,132.917 70.003 C 132.550 69.841,131.950 69.615,131.583 69.501 C 131.217 69.387,130.854 69.236,130.777 69.165 C 130.633 69.034,131.547 67.997,134.743 64.664 C 137.296 62.002,141.542 57.498,142.910 56.000 C 143.539 55.313,144.322 54.483,144.651 54.157 C 144.981 53.831,145.734 53.064,146.325 52.453 L 147.399 51.341 145.408 49.466 C 144.313 48.434,142.442 46.647,141.250 45.495 C 140.058 44.342,138.310 42.697,137.366 41.839 L 135.648 40.279 135.109 40.848 C 134.627 41.357,132.988 43.476,132.333 44.436 C 132.062 44.835,127.758 50.811,127.546 51.083 C 127.164 51.575,126.452 52.571,125.580 53.833 C 125.041 54.612,124.503 55.349,124.384 55.470 C 124.264 55.591,124.167 55.741,124.166 55.804 C 124.166 56.027,123.361 56.847,123.277 56.710 C 123.136 56.482,122.697 51.763,122.591 49.333 C 122.450 46.127,122.182 42.602,121.978 41.292 C 121.795 40.112,121.684 40.011,120.917 40.326 M50.667 42.257 C 47.803 42.546,45.889 42.801,45.000 43.012 C 44.587 43.110,43.950 43.255,43.583 43.335 C 42.115 43.655,40.536 44.056,39.667 44.330 C 37.426 45.037,35.891 45.541,35.583 45.670 C 35.400 45.746,34.650 46.034,33.917 46.309 C 31.657 47.156,25.266 50.196,23.417 51.304 C 21.760 52.297,21.686 52.357,21.793 52.636 C 21.924 52.979,23.564 56.164,24.083 57.083 C 24.290 57.450,24.731 58.226,25.063 58.808 C 25.395 59.389,25.667 59.933,25.667 60.016 C 25.667 60.099,25.742 60.167,25.833 60.167 C 25.925 60.167,26.000 60.238,26.000 60.326 C 26.000 60.500,28.081 63.990,28.862 65.124 C 29.376 65.871,29.662 65.965,30.450 65.643 C 31.666 65.148,32.190 64.913,33.580 64.245 L 35.077 63.525 35.390 64.221 C 35.562 64.604,35.800 65.142,35.920 65.417 C 36.040 65.692,36.406 66.505,36.735 67.223 C 37.064 67.942,37.333 68.556,37.333 68.588 C 37.333 68.621,37.642 69.308,38.018 70.115 C 38.395 70.923,39.001 72.258,39.366 73.083 C 39.731 73.908,40.201 74.958,40.410 75.417 C 40.620 75.875,40.944 76.587,41.131 77.000 C 41.318 77.412,41.739 78.338,42.068 79.057 C 42.397 79.775,42.667 80.399,42.667 80.442 C 42.667 80.516,42.994 81.251,43.917 83.250 C 44.276 84.028,44.450 84.413,45.421 86.583 C 45.626 87.042,46.065 88.003,46.397 88.721 C 46.729 89.438,47.000 90.050,47.000 90.081 C 47.000 90.112,47.269 90.725,47.598 91.443 C 48.341 93.065,48.759 93.989,49.283 95.167 C 49.508 95.671,49.795 96.312,49.921 96.592 C 50.048 96.872,50.368 97.585,50.633 98.176 C 50.899 98.766,51.345 99.737,51.626 100.333 C 52.460 102.107,53.333 104.026,53.333 104.086 C 53.333 104.144,54.107 105.837,55.121 108.000 C 55.444 108.688,55.950 109.775,56.247 110.417 C 57.786 113.749,57.836 113.833,58.276 113.833 C 59.146 113.833,66.016 111.758,67.958 110.909 C 68.685 110.591,68.770 111.181,66.963 104.000 C 66.064 100.430,65.785 99.348,64.834 95.750 C 64.063 92.837,62.167 85.237,62.167 85.063 C 62.167 84.759,63.171 83.758,64.083 83.153 C 66.708 81.413,71.851 76.265,73.917 73.311 C 78.958 66.099,80.045 59.093,77.031 53.250 C 76.700 52.608,76.387 52.046,76.336 52.000 C 76.284 51.954,76.108 51.705,75.943 51.447 C 75.105 50.131,72.046 47.060,71.033 46.518 C 70.846 46.418,70.585 46.228,70.453 46.096 C 70.241 45.884,68.279 44.760,67.166 44.212 C 63.842 42.579,56.312 41.687,50.667 42.257 M167.667 45.430 C 166.037 45.708,163.118 46.464,162.250 46.833 C 154.460 50.139,150.212 55.285,149.232 62.599 C 148.893 65.127,149.345 69.521,150.019 70.242 C 150.100 70.329,150.167 70.502,150.167 70.627 C 150.167 71.917,153.145 76.092,155.167 77.636 C 155.487 77.881,155.787 78.122,155.833 78.171 C 156.235 78.603,159.508 80.289,160.917 80.788 C 161.398 80.959,162.567 81.252,164.500 81.687 C 165.650 81.945,170.426 81.949,171.667 81.693 C 172.171 81.589,173.183 81.383,173.917 81.236 C 177.558 80.507,182.194 78.499,185.991 76.007 C 187.289 75.155,190.583 72.285,190.583 72.007 C 190.583 71.878,189.416 70.800,186.338 68.083 C 185.300 67.167,184.282 66.260,184.078 66.069 C 183.874 65.878,183.369 65.445,182.958 65.108 L 182.209 64.494 181.314 65.289 C 180.822 65.726,180.306 66.201,180.168 66.346 C 179.594 66.945,178.296 67.866,177.387 68.319 C 175.410 69.305,174.437 69.623,172.250 70.000 C 171.608 70.111,170.747 70.263,170.335 70.339 C 169.924 70.414,169.557 70.446,169.520 70.409 C 169.444 70.333,171.332 68.193,173.491 65.907 C 174.275 65.077,176.083 63.165,177.508 61.657 C 178.934 60.150,180.471 58.505,180.925 58.003 C 181.379 57.500,181.939 56.900,182.169 56.669 C 182.399 56.439,183.074 55.688,183.669 55.000 C 184.264 54.313,184.803 53.726,184.868 53.697 C 184.932 53.668,185.257 53.265,185.589 52.803 L 186.194 51.961 185.706 51.356 C 185.146 50.662,182.610 48.702,181.598 48.182 C 181.223 47.990,180.461 47.580,179.904 47.273 C 178.842 46.686,177.377 46.126,175.833 45.719 C 174.946 45.484,168.651 45.262,167.667 45.430 M170.431 53.093 C 174.151 53.956,175.306 55.291,173.959 57.175 C 173.244 58.174,172.174 59.521,171.846 59.833 C 171.701 59.971,171.208 60.531,170.750 61.078 C 170.292 61.626,169.729 62.271,169.500 62.512 C 169.271 62.753,168.033 64.090,166.750 65.482 C 163.405 69.111,162.438 69.940,161.933 69.609 C 159.088 67.745,157.742 62.073,159.294 58.490 C 159.451 58.129,159.636 57.833,159.706 57.833 C 159.776 57.833,159.833 57.753,159.833 57.654 C 159.833 56.987,162.223 54.656,163.818 53.767 C 165.362 52.906,168.324 52.604,170.431 53.093 M63.197 58.023 C 63.352 58.102,63.600 58.167,63.749 58.167 C 64.973 58.167,67.523 60.253,68.335 61.919 C 70.510 66.385,68.867 71.673,64.083 75.596 C 63.533 76.048,63.046 76.463,63.000 76.520 C 62.747 76.834,60.101 78.506,59.941 78.453 C 59.745 78.387,59.133 76.668,58.117 73.333 C 57.126 70.077,56.062 66.470,55.635 64.917 C 55.534 64.550,55.353 63.936,55.232 63.552 C 53.925 59.417,54.097 58.731,56.583 58.149 C 58.411 57.721,62.458 57.644,63.197 58.023 M95.917 64.749 C 90.199 65.627,84.344 69.261,81.414 73.750 C 81.055 74.300,80.721 74.787,80.672 74.833 C 79.857 75.596,78.061 80.203,77.671 82.529 C 76.450 89.826,81.389 97.816,88.115 99.423 C 90.063 99.889,96.612 99.716,97.917 99.165 C 102.286 97.317,105.832 94.818,108.084 92.000 C 111.156 88.157,112.488 84.635,112.623 80.000 C 112.834 72.793,110.014 68.349,103.417 65.492 C 101.626 64.717,98.281 64.385,95.917 64.749 M97.667 68.515 C 97.667 68.743,96.986 69.320,96.708 69.328 C 96.223 69.341,94.538 71.296,94.171 72.273 C 92.589 76.477,98.523 79.873,102.456 77.015 C 103.506 76.251,104.030 75.319,104.510 73.363 C 104.950 71.566,105.742 74.086,105.635 76.941 C 105.265 86.748,90.794 87.901,88.246 78.326 C 87.322 74.856,89.039 71.420,92.598 69.618 C 94.469 68.670,97.667 67.974,97.667 68.515 " stroke="none" fill="#fccc04" fill-rule="evenodd"></path><path id="path1" d="M232.042 21.282 C 232.202 21.323,232.465 21.323,232.625 21.282 C 232.785 21.240,232.654 21.205,232.333 21.205 C 232.012 21.205,231.881 21.240,232.042 21.282 M265.567 32.583 C 265.568 34.050,265.593 34.628,265.624 33.867 C 265.655 33.106,265.655 31.906,265.624 31.200 C 265.593 30.494,265.567 31.117,265.567 32.583 M368.000 30.583 C 368.311 30.904,368.603 31.167,368.649 31.167 C 368.695 31.167,368.478 30.904,368.167 30.583 C 367.856 30.262,367.564 30.000,367.518 30.000 C 367.472 30.000,367.689 30.262,368.000 30.583 M250.559 32.917 C 250.559 33.742,250.587 34.100,250.622 33.713 C 250.657 33.327,250.657 32.652,250.623 32.213 C 250.588 31.775,250.560 32.092,250.559 32.917 M279.958 31.951 C 280.165 31.991,280.502 31.991,280.708 31.951 C 280.915 31.911,280.746 31.879,280.333 31.879 C 279.921 31.879,279.752 31.911,279.958 31.951 M283.627 32.285 C 283.834 32.324,284.134 32.323,284.294 32.281 C 284.453 32.239,284.283 32.207,283.917 32.209 C 283.550 32.211,283.420 32.245,283.627 32.285 M292.627 33.118 C 292.834 33.158,293.134 33.156,293.294 33.115 C 293.453 33.073,293.283 33.040,292.917 33.042 C 292.550 33.044,292.420 33.078,292.627 33.118 M296.460 33.451 C 296.668 33.491,296.968 33.490,297.127 33.448 C 297.286 33.406,297.117 33.374,296.750 33.375 C 296.383 33.377,296.253 33.411,296.460 33.451 M299.708 33.782 C 299.869 33.823,300.131 33.823,300.292 33.782 C 300.452 33.740,300.321 33.705,300.000 33.705 C 299.679 33.705,299.548 33.740,299.708 33.782 M337.372 34.167 C 337.372 34.487,337.406 34.619,337.448 34.458 C 337.490 34.298,337.490 34.035,337.448 33.875 C 337.406 33.715,337.372 33.846,337.372 34.167 M227.500 34.385 C 227.500 34.414,227.744 34.658,228.042 34.927 L 228.583 35.417 228.094 34.875 C 227.638 34.370,227.500 34.257,227.500 34.385 M324.750 39.833 C 324.807 39.925,324.994 40.000,325.167 40.000 C 325.339 40.000,325.527 39.925,325.583 39.833 C 325.644 39.736,325.471 39.667,325.167 39.667 C 324.863 39.667,324.690 39.736,324.750 39.833 M272.214 40.917 C 272.216 41.375,272.248 41.543,272.286 41.289 C 272.325 41.036,272.324 40.661,272.284 40.456 C 272.244 40.251,272.213 40.458,272.214 40.917 M326.848 40.326 C 327.085 40.398,327.479 40.587,327.723 40.747 C 327.967 40.907,328.167 40.991,328.167 40.933 C 328.167 40.740,327.088 40.168,326.750 40.182 C 326.487 40.192,326.507 40.223,326.848 40.326 M250.872 40.833 C 250.872 41.154,250.906 41.285,250.948 41.125 C 250.990 40.965,250.990 40.702,250.948 40.542 C 250.906 40.381,250.872 40.512,250.872 40.833 M244.223 41.667 C 244.223 42.354,244.252 42.635,244.288 42.292 C 244.324 41.948,244.324 41.385,244.288 41.042 C 244.252 40.698,244.223 40.979,244.223 41.667 M328.850 41.528 C 329.181 41.834,329.810 42.365,330.249 42.709 C 331.405 43.615,332.450 44.603,332.771 45.093 C 332.925 45.327,333.343 45.668,333.700 45.850 C 334.057 46.033,334.416 46.347,334.498 46.549 C 334.608 46.824,334.648 46.845,334.656 46.633 C 334.662 46.477,334.469 46.214,334.227 46.049 C 333.986 45.885,333.230 45.207,332.548 44.544 C 331.866 43.881,330.620 42.807,329.779 42.156 C 328.938 41.505,328.520 41.223,328.850 41.528 M223.500 41.310 C 223.500 41.401,223.600 41.576,223.722 41.698 C 223.844 41.820,223.912 42.013,223.874 42.127 C 223.831 42.258,223.903 42.296,224.074 42.231 C 224.296 42.145,224.305 42.081,224.129 41.856 C 223.724 41.338,223.500 41.144,223.500 41.310 M224.083 42.500 C 223.986 42.658,224.099 42.730,224.375 42.686 C 224.444 42.676,224.500 42.754,224.500 42.861 C 224.500 42.968,224.539 43.016,224.587 42.968 C 224.708 42.848,224.496 42.333,224.325 42.333 C 224.249 42.333,224.140 42.408,224.083 42.500 M288.042 43.619 C 288.294 43.658,288.706 43.658,288.958 43.619 C 289.210 43.581,289.004 43.550,288.500 43.550 C 287.996 43.550,287.790 43.581,288.042 43.619 M265.232 46.083 C 265.233 47.367,265.259 47.870,265.291 47.201 C 265.322 46.532,265.322 45.482,265.290 44.868 C 265.258 44.253,265.232 44.800,265.232 46.083 M292.460 43.951 C 292.668 43.991,292.968 43.990,293.127 43.948 C 293.286 43.906,293.117 43.874,292.750 43.875 C 292.383 43.877,292.253 43.911,292.460 43.951 M303.455 44.787 C 303.750 44.824,304.275 44.824,304.621 44.788 C 304.967 44.752,304.725 44.722,304.083 44.721 C 303.442 44.721,303.159 44.750,303.455 44.787 M300.105 50.860 C 299.855 51.242,299.772 51.453,299.920 51.331 C 300.172 51.122,300.744 50.167,300.617 50.167 C 300.585 50.167,300.355 50.479,300.105 50.860 M193.270 51.667 C 193.465 51.896,193.665 52.196,193.716 52.333 C 193.794 52.547,193.809 52.546,193.820 52.321 C 193.827 52.176,193.627 51.876,193.375 51.654 L 192.917 51.250 193.270 51.667 M300.875 51.955 C 301.219 51.991,301.781 51.991,302.125 51.955 C 302.469 51.919,302.188 51.889,301.500 51.889 C 300.813 51.889,300.531 51.919,300.875 51.955 M214.583 53.167 C 214.941 53.533,215.272 53.833,215.318 53.833 C 215.363 53.833,215.108 53.533,214.750 53.167 C 214.392 52.800,214.062 52.500,214.016 52.500 C 213.970 52.500,214.225 52.800,214.583 53.167 M291.542 53.282 C 291.702 53.323,291.965 53.323,292.125 53.282 C 292.285 53.240,292.154 53.205,291.833 53.205 C 291.512 53.205,291.381 53.240,291.542 53.282 M230.728 55.583 C 230.728 56.500,230.756 56.854,230.790 56.369 C 230.824 55.885,230.823 55.135,230.789 54.703 C 230.755 54.270,230.727 54.667,230.728 55.583 M251.205 54.667 C 251.205 54.987,251.240 55.119,251.282 54.958 C 251.323 54.798,251.323 54.535,251.282 54.375 C 251.240 54.215,251.205 54.346,251.205 54.667 M325.326 57.542 C 326.017 58.278,326.167 58.410,326.167 58.285 C 326.167 58.258,325.810 57.902,325.375 57.493 L 324.583 56.750 325.326 57.542 M264.899 59.667 C 264.899 60.904,264.925 61.410,264.957 60.792 C 264.989 60.173,264.989 59.160,264.957 58.542 C 264.925 57.923,264.899 58.429,264.899 59.667 M187.033 60.033 C 186.739 60.328,186.787 60.576,187.208 60.933 L 187.583 61.250 187.257 60.866 C 186.987 60.547,186.966 60.426,187.134 60.157 C 187.364 59.788,187.326 59.741,187.033 60.033 M243.879 61.167 C 243.879 61.579,243.911 61.748,243.951 61.542 C 243.991 61.335,243.991 60.998,243.951 60.792 C 243.911 60.585,243.879 60.754,243.879 61.167 M313.205 64.667 C 313.205 64.987,313.240 65.119,313.282 64.958 C 313.323 64.798,313.323 64.535,313.282 64.375 C 313.240 64.215,313.205 64.346,313.205 64.667 M231.075 70.500 C 231.075 73.662,231.097 74.956,231.125 73.375 C 231.152 71.794,231.152 69.206,231.125 67.625 C 231.097 66.044,231.075 67.337,231.075 70.500 M243.555 66.250 C 243.555 66.892,243.586 67.134,243.622 66.788 C 243.658 66.442,243.657 65.917,243.620 65.621 C 243.583 65.325,243.554 65.608,243.555 66.250 M192.619 66.168 C 193.006 66.571,193.348 66.867,193.380 66.825 C 193.412 66.784,193.096 66.454,192.677 66.093 L 191.917 65.435 192.619 66.168 M296.542 69.583 C 296.544 69.950,296.578 70.080,296.618 69.873 C 296.658 69.666,296.656 69.366,296.615 69.206 C 296.573 69.047,296.540 69.217,296.542 69.583 M318.292 71.121 C 318.590 71.158,319.077 71.158,319.375 71.121 C 319.673 71.084,319.429 71.053,318.833 71.053 C 318.237 71.053,317.994 71.084,318.292 71.121 M301.625 72.118 C 301.831 72.157,302.169 72.157,302.375 72.118 C 302.581 72.078,302.412 72.045,302.000 72.045 C 301.587 72.045,301.419 72.078,301.625 72.118 M305.625 72.124 C 308.123 72.195,308.039 72.067,307.780 75.417 C 307.745 75.875,307.747 75.951,307.786 75.587 C 307.825 75.222,307.927 74.838,308.012 74.735 C 308.241 74.460,308.153 72.812,307.887 72.375 C 307.669 72.017,307.571 72.002,305.704 72.036 L 303.750 72.071 305.625 72.124 M371.848 73.042 C 371.887 73.065,372.180 73.308,372.501 73.583 L 373.083 74.083 372.594 73.542 C 372.325 73.244,372.031 73.000,371.941 73.000 C 371.851 73.000,371.809 73.019,371.848 73.042 M281.708 73.448 C 281.869 73.490,282.131 73.490,282.292 73.448 C 282.452 73.406,282.321 73.372,282.000 73.372 C 281.679 73.372,281.548 73.406,281.708 73.448 M285.127 73.785 C 285.334 73.824,285.634 73.823,285.794 73.781 C 285.953 73.739,285.783 73.707,285.417 73.709 C 285.050 73.711,284.920 73.745,285.127 73.785 M296.044 74.620 C 296.297 74.658,296.672 74.657,296.877 74.617 C 297.082 74.578,296.875 74.546,296.417 74.548 C 295.958 74.549,295.791 74.581,296.044 74.620 M299.960 74.951 C 300.168 74.991,300.468 74.990,300.627 74.948 C 300.786 74.906,300.617 74.874,300.250 74.875 C 299.883 74.877,299.753 74.911,299.960 74.951 M252.033 78.948 C 252.015 80.616,252.056 82.015,252.125 82.058 C 252.194 82.101,252.230 81.224,252.206 80.110 C 252.125 76.310,252.065 75.913,252.033 78.948 M307.539 77.000 C 307.539 77.321,307.573 77.452,307.615 77.292 C 307.657 77.131,307.657 76.869,307.615 76.708 C 307.573 76.548,307.539 76.679,307.539 77.000 M307.353 78.278 C 307.342 78.385,307.285 78.610,307.225 78.778 C 307.142 79.015,307.164 79.041,307.324 78.893 C 307.438 78.788,307.495 78.563,307.452 78.393 C 307.408 78.223,307.363 78.171,307.353 78.278 M359.833 80.385 C 359.833 80.414,360.077 80.658,360.375 80.927 L 360.917 81.417 360.427 80.875 C 359.971 80.370,359.833 80.257,359.833 80.385 M206.125 83.618 C 206.331 83.657,206.669 83.657,206.875 83.618 C 207.081 83.578,206.912 83.545,206.500 83.545 C 206.088 83.545,205.919 83.578,206.125 83.618 M207.958 83.618 C 208.165 83.657,208.502 83.657,208.708 83.618 C 208.915 83.578,208.746 83.545,208.333 83.545 C 207.921 83.545,207.752 83.578,207.958 83.618 M339.708 87.458 C 340.785 87.487,342.548 87.487,343.625 87.458 C 344.702 87.429,343.821 87.405,341.667 87.405 C 339.512 87.405,338.631 87.429,339.708 87.458 M369.667 90.917 C 370.165 91.421,370.609 91.833,370.655 91.833 C 370.701 91.833,370.331 91.421,369.833 90.917 C 369.335 90.412,368.891 90.000,368.845 90.000 C 368.799 90.000,369.169 90.412,369.667 90.917 M378.427 92.263 C 378.282 92.408,378.206 92.596,378.258 92.680 C 378.310 92.764,378.248 92.833,378.121 92.833 C 377.993 92.833,377.688 93.058,377.443 93.333 C 377.198 93.608,376.915 93.833,376.814 93.833 C 376.713 93.833,376.672 93.941,376.723 94.073 C 376.786 94.237,376.632 94.374,376.240 94.503 C 375.923 94.608,375.587 94.837,375.493 95.013 C 375.399 95.189,375.177 95.333,374.999 95.333 C 374.780 95.333,374.708 95.414,374.774 95.585 C 374.846 95.774,374.792 95.809,374.560 95.727 C 374.300 95.635,374.285 95.655,374.470 95.850 C 374.657 96.049,374.725 96.035,374.928 95.760 C 375.059 95.582,375.167 95.493,375.167 95.562 C 375.167 95.757,376.658 94.640,377.103 94.112 C 377.321 93.853,377.501 93.703,377.503 93.779 C 377.508 94.003,378.633 92.645,378.721 92.308 C 378.820 91.932,378.767 91.923,378.427 92.263 " stroke="none" fill="#6bfbfb" fill-rule="evenodd"></path><path id="path2" d="M175.500 14.525 C 175.179 14.722,174.579 15.069,174.167 15.296 C 172.247 16.353,170.104 18.369,166.333 22.666 C 165.829 23.241,165.267 23.870,165.083 24.065 C 164.900 24.261,164.337 24.906,163.833 25.500 C 163.329 26.094,162.767 26.740,162.583 26.935 C 162.256 27.284,161.190 28.510,160.498 29.333 C 160.306 29.563,159.721 30.233,159.199 30.823 C 158.677 31.413,158.103 32.088,157.923 32.323 C 157.743 32.558,157.479 32.862,157.337 33.000 C 157.195 33.137,156.668 33.737,156.166 34.333 C 155.663 34.929,155.214 35.454,155.168 35.500 C 155.054 35.612,154.103 36.715,153.083 37.918 C 152.625 38.459,152.043 39.117,151.790 39.382 C 150.773 40.444,150.737 40.324,152.873 42.989 C 153.493 43.762,154.000 44.457,154.000 44.534 C 154.000 44.701,151.768 46.167,151.512 46.167 C 151.414 46.167,151.333 46.242,151.333 46.333 C 151.333 46.425,151.221 46.500,151.083 46.500 C 150.946 46.500,150.833 46.575,150.833 46.667 C 150.833 46.956,150.584 46.850,149.955 46.292 C 149.620 45.994,148.918 45.375,148.396 44.917 C 147.874 44.458,147.203 43.858,146.905 43.583 C 146.607 43.308,145.970 42.746,145.488 42.333 C 145.007 41.921,144.455 41.433,144.262 41.250 C 144.069 41.067,143.351 40.429,142.667 39.833 C 141.982 39.237,141.266 38.600,141.075 38.417 C 140.884 38.233,140.253 37.671,139.674 37.167 C 139.094 36.662,138.461 36.100,138.267 35.917 C 138.072 35.733,137.429 35.171,136.836 34.667 C 136.244 34.162,135.495 33.500,135.172 33.195 C 133.708 31.815,133.139 31.870,130.167 33.672 C 129.662 33.978,128.962 34.482,128.610 34.794 C 127.834 35.480,127.842 35.488,127.653 33.981 C 127.443 32.304,127.537 32.328,124.714 33.244 C 121.091 34.420,119.719 34.862,116.667 35.837 C 113.149 36.960,108.206 38.591,107.385 38.900 C 107.036 39.031,106.263 39.290,105.667 39.474 C 100.561 41.054,96.221 42.889,95.630 43.717 C 95.227 44.285,95.354 49.920,95.927 56.894 L 96.049 58.371 96.733 58.273 C 97.109 58.218,97.942 58.055,98.583 57.909 C 99.225 57.763,99.956 57.603,100.208 57.553 L 100.667 57.462 100.667 58.961 L 100.667 60.460 97.542 60.542 C 94.292 60.628,93.226 60.812,90.167 61.821 C 88.975 62.214,88.840 62.268,87.483 62.899 C 86.970 63.138,86.470 63.333,86.372 63.333 C 86.274 63.333,86.169 63.391,86.139 63.462 C 86.079 63.600,83.968 64.690,83.897 64.619 C 83.873 64.596,83.934 63.491,84.032 62.163 C 84.490 55.939,83.052 51.113,79.427 46.704 C 79.030 46.220,76.158 43.442,75.801 43.196 C 75.590 43.050,75.330 42.846,75.224 42.742 C 75.117 42.639,74.630 42.300,74.140 41.989 C 73.651 41.678,73.156 41.333,73.041 41.223 C 72.926 41.113,72.476 40.849,72.041 40.637 C 71.606 40.424,71.212 40.209,71.167 40.158 C 71.018 39.995,69.164 39.167,68.945 39.167 C 68.829 39.167,68.662 39.103,68.575 39.026 C 67.791 38.329,63.293 37.236,59.500 36.820 C 57.532 36.605,51.117 36.704,48.833 36.985 C 44.929 37.466,41.871 38.021,39.417 38.695 C 39.050 38.796,38.525 38.939,38.250 39.013 C 36.984 39.355,32.874 40.716,32.251 40.999 C 31.869 41.174,31.188 41.462,30.737 41.640 C 28.933 42.353,24.190 44.634,22.083 45.801 C 19.205 47.396,16.745 48.859,16.694 49.006 C 16.664 49.094,16.561 49.167,16.466 49.167 C 16.291 49.167,14.272 50.551,13.863 50.951 C 13.742 51.070,13.583 51.167,13.510 51.167 C 13.346 51.167,9.667 54.718,9.667 54.876 C 9.667 55.025,10.287 56.129,10.686 56.692 C 10.859 56.936,11.000 57.211,11.000 57.304 C 11.000 57.396,11.056 57.497,11.125 57.528 C 11.194 57.558,11.370 57.808,11.517 58.083 C 11.664 58.358,12.395 59.583,13.142 60.804 C 13.889 62.026,14.500 63.095,14.500 63.179 C 14.500 63.264,14.575 63.333,14.667 63.333 C 14.758 63.333,14.833 63.407,14.833 63.497 C 14.833 63.587,15.358 64.531,16.000 65.595 C 16.642 66.659,17.167 67.598,17.167 67.681 C 17.167 67.765,17.242 67.833,17.333 67.833 C 17.425 67.833,17.500 67.904,17.500 67.989 C 17.500 68.075,18.112 69.144,18.860 70.364 C 19.608 71.585,20.343 72.814,20.493 73.095 C 20.644 73.377,21.283 74.416,21.913 75.405 L 23.059 77.202 23.873 77.094 C 24.321 77.034,25.077 76.814,25.552 76.604 C 27.493 75.747,28.227 75.667,28.445 76.288 C 28.580 76.673,29.242 78.160,30.568 81.057 C 30.897 81.775,31.167 82.395,31.167 82.434 C 31.167 82.472,31.437 83.084,31.767 83.794 C 32.097 84.503,32.467 85.308,32.589 85.583 C 32.711 85.858,33.078 86.664,33.405 87.373 C 33.732 88.082,34.000 88.722,34.000 88.794 C 34.000 88.867,34.210 89.336,34.468 89.838 C 34.725 90.340,35.039 91.013,35.165 91.333 C 35.292 91.654,35.681 92.540,36.031 93.302 C 36.381 94.063,36.667 94.718,36.667 94.756 C 36.667 94.794,36.900 95.333,37.186 95.954 C 37.471 96.575,38.098 97.983,38.579 99.083 C 39.060 100.183,39.614 101.440,39.810 101.875 C 40.006 102.310,40.322 103.023,40.512 103.458 C 40.702 103.894,40.965 104.494,41.095 104.792 C 41.226 105.090,41.440 105.577,41.571 105.875 C 41.967 106.778,42.643 108.281,43.083 109.239 C 43.313 109.738,43.500 110.181,43.500 110.224 C 43.500 110.268,43.762 110.864,44.083 111.549 C 44.404 112.234,44.667 112.841,44.667 112.897 C 44.667 112.954,44.967 113.618,45.333 114.374 C 45.700 115.130,46.000 115.808,46.000 115.880 C 46.000 115.952,46.263 116.552,46.583 117.213 C 46.904 117.874,47.167 118.473,47.167 118.543 C 47.167 118.613,47.436 119.251,47.766 119.960 C 48.493 121.523,48.534 121.616,49.155 123.083 C 49.718 124.414,49.906 124.474,51.583 123.855 C 52.042 123.685,52.679 123.470,53.000 123.376 C 55.271 122.713,65.494 119.375,65.839 119.184 C 65.979 119.106,66.352 118.986,66.667 118.917 C 66.981 118.848,67.354 118.734,67.495 118.665 C 67.635 118.596,67.938 118.463,68.167 118.370 C 68.396 118.277,68.846 118.092,69.167 117.959 C 69.487 117.826,70.012 117.615,70.333 117.491 C 71.122 117.187,72.998 116.192,73.245 115.948 C 73.355 115.839,73.652 115.600,73.906 115.417 C 75.127 114.533,75.327 114.252,75.164 113.649 C 74.909 112.705,74.474 110.942,74.388 110.500 C 74.343 110.271,74.261 109.971,74.206 109.833 C 74.151 109.696,74.013 109.171,73.900 108.667 C 73.787 108.162,73.614 107.469,73.514 107.125 C 73.415 106.781,73.252 106.219,73.154 105.875 C 73.055 105.531,72.872 104.800,72.747 104.250 C 72.622 103.700,72.447 102.987,72.357 102.667 C 71.929 101.135,71.369 98.913,71.402 98.878 C 71.422 98.856,71.846 99.381,72.344 100.044 C 73.917 102.138,75.394 103.812,76.122 104.325 C 76.418 104.534,76.830 104.854,77.038 105.037 C 77.246 105.219,77.567 105.436,77.750 105.519 C 77.933 105.602,78.383 105.858,78.750 106.088 C 79.117 106.318,79.567 106.571,79.750 106.651 C 79.933 106.731,80.526 107.000,81.067 107.248 C 83.150 108.204,83.407 108.241,88.083 108.236 C 90.934 108.234,92.730 108.161,93.333 108.024 C 95.080 107.628,95.751 107.448,95.917 107.330 C 96.008 107.266,96.308 107.159,96.582 107.093 C 97.118 106.964,100.380 105.179,100.472 104.964 C 100.503 104.892,100.600 104.833,100.688 104.833 C 100.775 104.833,100.938 104.755,101.049 104.658 C 101.159 104.562,102.000 103.997,102.917 103.402 L 104.583 102.320 104.687 103.118 C 104.745 103.557,104.881 104.779,104.990 105.833 C 105.099 106.888,105.268 108.116,105.365 108.563 L 105.543 109.375 106.647 109.271 C 107.253 109.213,108.200 109.094,108.750 109.006 C 110.745 108.686,112.117 108.482,113.833 108.252 C 115.695 108.003,117.128 107.782,118.750 107.494 C 119.300 107.396,120.388 107.214,121.167 107.089 C 124.102 106.618,128.126 105.318,128.667 104.665 C 128.712 104.610,128.982 104.471,129.266 104.356 L 129.782 104.148 129.890 101.282 C 129.950 99.706,129.999 96.941,129.999 95.138 L 130.000 91.859 130.542 92.107 C 130.840 92.243,131.233 92.437,131.416 92.537 C 131.791 92.744,133.823 93.752,140.667 97.127 C 143.279 98.415,149.872 101.678,155.317 104.378 L 165.217 109.287 167.774 108.018 L 170.331 106.750 170.332 98.388 L 170.333 90.026 170.875 89.860 C 171.173 89.769,171.717 89.648,172.083 89.591 C 172.450 89.533,172.938 89.423,173.167 89.346 C 173.396 89.269,173.921 89.105,174.333 88.983 C 174.746 88.861,175.271 88.665,175.500 88.548 C 175.729 88.431,175.981 88.335,176.060 88.334 C 176.308 88.333,179.712 86.711,181.083 85.942 C 181.838 85.518,182.709 84.968,182.833 84.836 C 183.890 83.718,184.638 83.666,185.652 84.637 C 185.781 84.761,186.306 85.174,186.818 85.555 C 187.331 85.936,187.787 86.292,187.833 86.347 C 188.131 86.699,190.817 88.096,192.917 88.991 C 196.165 90.375,202.198 91.075,205.814 90.487 C 208.274 90.088,211.362 89.291,212.667 88.721 C 214.634 87.860,217.556 86.319,217.833 85.996 C 217.879 85.943,218.200 85.727,218.546 85.517 C 218.892 85.306,219.267 85.048,219.379 84.942 C 219.492 84.836,219.883 84.526,220.250 84.253 C 221.283 83.482,221.688 83.141,222.492 82.362 C 223.874 81.024,224.333 81.196,224.333 83.053 C 224.333 84.723,225.034 85.222,228.250 85.841 C 231.129 86.395,232.353 86.618,234.167 86.917 C 234.946 87.045,236.015 87.229,236.542 87.325 C 237.550 87.509,238.856 87.744,239.833 87.917 C 240.154 87.973,240.726 88.098,241.105 88.193 L 241.793 88.365 243.021 87.169 C 244.383 85.842,244.446 85.854,244.483 87.452 C 244.505 88.371,244.924 88.757,246.049 88.895 C 246.526 88.954,247.329 89.080,247.833 89.175 C 248.338 89.270,249.387 89.458,250.167 89.592 C 252.097 89.923,252.809 90.062,254.750 90.487 C 257.901 91.177,259.086 91.378,260.462 91.456 C 262.432 91.568,262.491 91.533,265.257 88.605 C 265.805 88.025,265.927 87.970,266.475 88.058 C 269.383 88.525,270.374 88.690,271.167 88.841 C 272.077 89.014,272.541 89.093,275.417 89.569 C 276.242 89.705,277.348 89.895,277.875 89.992 C 278.402 90.088,279.246 90.242,279.750 90.333 C 280.254 90.425,281.098 90.580,281.625 90.677 C 282.152 90.774,283.296 90.968,284.167 91.108 C 285.860 91.380,286.666 91.521,288.250 91.825 C 288.800 91.930,289.887 92.122,290.667 92.251 C 291.446 92.380,292.496 92.563,293.000 92.659 C 293.504 92.755,294.329 92.909,294.833 93.001 C 295.337 93.093,296.125 93.241,296.583 93.329 C 297.042 93.418,297.983 93.577,298.675 93.683 L 299.933 93.876 301.092 93.239 C 301.729 92.889,302.472 92.486,302.742 92.343 C 303.013 92.200,303.342 91.985,303.472 91.865 C 303.603 91.745,303.830 91.700,303.980 91.764 C 304.317 91.910,305.628 92.238,306.833 92.477 C 311.423 93.388,317.148 93.036,321.833 91.553 C 322.887 91.220,323.975 90.821,324.250 90.667 C 324.669 90.432,325.320 90.199,327.305 89.570 C 327.466 89.520,327.502 89.626,327.439 89.958 C 327.390 90.210,327.302 91.174,327.243 92.100 L 327.134 93.783 329.692 93.972 C 331.099 94.075,335.225 94.204,338.862 94.257 L 345.474 94.353 347.705 92.135 C 349.966 89.886,351.030 88.502,351.243 87.532 C 351.668 85.596,351.668 85.596,354.750 88.869 C 355.942 90.134,357.404 91.679,358.000 92.301 C 358.596 92.923,359.758 94.176,360.583 95.085 C 361.408 95.995,362.346 97.008,362.667 97.337 C 362.988 97.666,363.887 98.634,364.667 99.488 C 366.961 102.002,370.995 106.135,371.700 106.693 L 372.352 107.209 373.018 106.909 C 373.608 106.642,375.620 104.822,376.353 103.890 C 376.655 103.507,377.833 101.527,377.833 101.403 C 377.833 101.359,378.101 100.745,378.428 100.037 C 379.213 98.337,379.552 97.465,380.419 94.917 C 380.574 94.458,380.766 93.933,380.844 93.750 C 381.009 93.362,382.296 89.449,382.817 87.750 C 383.014 87.108,383.560 85.396,384.030 83.944 L 384.885 81.304 383.728 80.194 C 382.576 79.087,380.662 77.346,379.089 75.973 C 378.634 75.575,378.068 75.063,377.831 74.833 C 377.595 74.604,376.842 73.931,376.159 73.337 C 375.476 72.743,374.804 72.143,374.667 72.002 C 374.529 71.862,374.117 71.493,373.750 71.181 C 372.785 70.361,370.680 68.498,370.062 67.917 C 369.769 67.642,369.130 67.080,368.640 66.668 C 368.151 66.256,367.521 65.693,367.242 65.418 C 366.962 65.142,366.362 64.586,365.908 64.182 C 363.742 62.253,360.000 58.601,360.000 58.415 C 360.000 58.301,360.431 57.880,360.958 57.479 C 361.485 57.079,361.954 56.712,362.000 56.663 C 362.046 56.615,362.608 56.242,363.250 55.833 C 363.892 55.425,364.454 55.049,364.500 54.998 C 364.584 54.905,365.770 54.063,367.917 52.576 C 368.558 52.131,369.183 51.669,369.305 51.549 C 369.426 51.429,369.676 51.251,369.860 51.153 C 370.043 51.054,370.318 50.869,370.472 50.740 C 370.625 50.611,371.425 50.019,372.250 49.423 C 374.357 47.901,374.532 47.771,374.736 47.583 C 374.835 47.492,375.217 47.196,375.583 46.925 C 375.950 46.655,376.287 46.390,376.333 46.336 C 376.379 46.283,376.640 46.067,376.913 45.857 C 377.656 45.286,380.333 42.803,380.333 42.685 C 380.333 42.595,378.846 40.523,378.286 39.833 C 378.175 39.696,377.939 39.360,377.763 39.088 C 377.587 38.815,377.306 38.445,377.138 38.265 C 376.971 38.084,376.833 37.882,376.833 37.814 C 376.833 37.746,376.736 37.591,376.616 37.470 C 376.497 37.349,375.957 36.612,375.417 35.833 C 374.876 35.054,374.337 34.318,374.217 34.196 C 374.098 34.075,374.000 33.921,374.000 33.853 C 374.000 33.785,373.868 33.584,373.706 33.406 C 373.544 33.229,373.114 32.671,372.750 32.167 C 372.386 31.662,372.031 31.175,371.961 31.083 C 371.892 30.992,371.478 30.429,371.042 29.833 C 370.086 28.526,370.099 28.542,368.886 27.083 C 366.406 24.100,366.569 24.084,362.970 27.645 C 360.883 29.710,360.081 30.670,358.878 32.542 C 357.992 33.921,357.977 33.872,358.033 29.766 C 358.060 27.712,358.031 25.979,357.968 25.914 C 357.853 25.798,355.107 26.043,353.333 26.327 C 352.829 26.408,351.854 26.561,351.167 26.666 C 350.479 26.771,349.467 26.930,348.917 27.019 C 348.367 27.109,347.204 27.287,346.333 27.417 C 344.348 27.712,342.659 27.992,339.860 28.491 C 336.896 29.019,335.349 29.653,334.473 30.699 C 334.098 31.147,333.557 31.634,333.271 31.781 C 332.984 31.928,332.479 32.319,332.148 32.649 C 331.549 33.246,331.237 33.839,330.160 36.417 C 330.084 36.600,329.970 36.938,329.907 37.167 C 329.654 38.089,329.520 38.086,326.688 37.094 C 323.927 36.127,313.611 36.059,311.431 36.994 C 309.950 37.629,309.953 37.633,310.475 35.417 C 310.863 33.770,310.875 33.640,310.671 33.258 C 310.230 32.434,308.350 31.962,304.333 31.667 C 295.293 31.003,294.925 30.972,290.500 30.501 C 287.949 30.229,285.906 30.023,283.083 29.753 C 281.708 29.621,279.833 29.432,278.917 29.332 C 276.983 29.121,274.697 28.878,273.202 28.725 C 272.243 28.626,271.556 28.775,271.167 29.166 C 271.121 29.212,270.933 29.332,270.750 29.432 C 270.567 29.532,270.042 29.824,269.583 30.082 C 269.125 30.341,268.563 30.652,268.333 30.774 L 267.917 30.996 267.867 28.873 C 267.840 27.705,267.896 26.016,267.992 25.118 C 268.088 24.221,268.167 22.895,268.167 22.171 C 268.167 20.666,268.287 20.777,266.333 20.492 C 265.646 20.392,264.633 20.236,264.083 20.147 C 261.952 19.799,260.239 19.550,256.167 18.994 C 255.571 18.913,254.596 18.771,254.000 18.678 C 248.456 17.819,249.058 17.795,247.548 18.936 C 246.834 19.475,246.210 19.970,246.160 20.036 C 245.604 20.777,243.886 21.142,242.383 20.839 C 241.943 20.750,240.683 20.596,239.583 20.497 C 238.483 20.398,237.096 20.248,236.500 20.164 C 235.904 20.080,234.892 19.937,234.250 19.847 C 233.608 19.757,232.183 19.570,231.083 19.431 C 227.736 19.009,226.448 18.821,226.307 18.734 C 226.234 18.688,226.021 18.733,225.834 18.833 C 225.570 18.974,225.386 18.952,225.015 18.733 C 224.490 18.422,224.054 18.596,222.968 19.546 C 222.722 19.762,222.320 20.084,222.077 20.261 C 219.898 21.846,219.917 21.772,219.917 29.046 L 219.917 35.175 219.422 35.066 C 219.150 35.007,218.813 34.901,218.672 34.832 C 218.532 34.762,218.210 34.622,217.958 34.519 C 217.706 34.417,217.331 34.265,217.125 34.180 C 215.933 33.694,213.503 32.979,212.029 32.680 C 210.708 32.412,206.331 32.461,204.667 32.763 C 202.451 33.164,201.642 33.319,200.833 33.500 C 200.421 33.592,199.654 33.750,199.128 33.851 C 196.207 34.412,191.095 38.337,187.797 42.552 C 186.227 44.559,186.421 44.525,183.892 43.233 C 180.683 41.595,178.500 40.839,175.303 40.261 C 174.508 40.118,173.683 39.997,173.470 39.992 C 173.257 39.988,172.868 39.893,172.605 39.781 L 172.127 39.576 173.105 39.062 C 174.325 38.422,176.738 37.138,178.167 36.370 C 178.762 36.049,179.775 35.516,180.417 35.185 C 181.058 34.854,181.621 34.542,181.667 34.491 C 181.713 34.441,182.045 34.262,182.405 34.094 C 182.766 33.926,183.441 33.563,183.905 33.287 C 184.370 33.012,185.050 32.623,185.417 32.425 C 187.087 31.519,187.160 31.455,187.164 30.908 C 187.167 30.574,186.385 28.833,186.159 28.667 C 186.096 28.621,185.992 28.415,185.928 28.208 C 185.864 28.002,185.741 27.833,185.655 27.833 C 185.570 27.833,185.500 27.721,185.500 27.583 C 185.500 27.446,185.439 27.333,185.364 27.333 C 185.290 27.333,185.102 27.090,184.949 26.792 C 184.626 26.167,184.291 25.620,184.157 25.500 C 184.107 25.454,183.619 24.719,183.074 23.866 C 182.529 23.013,181.952 22.158,181.792 21.966 C 181.631 21.773,181.500 21.557,181.500 21.486 C 181.500 21.415,181.399 21.256,181.276 21.133 C 181.153 21.010,180.844 20.579,180.589 20.176 C 180.335 19.773,180.060 19.362,179.979 19.263 C 179.898 19.164,179.482 18.558,179.054 17.917 C 178.626 17.275,178.225 16.712,178.161 16.667 C 178.098 16.621,177.916 16.328,177.756 16.016 C 177.596 15.703,177.323 15.296,177.151 15.111 C 176.978 14.926,176.794 14.638,176.741 14.471 C 176.613 14.070,176.215 14.087,175.500 14.525 M254.750 20.502 C 255.300 20.595,256.612 20.784,257.667 20.923 C 260.378 21.281,262.384 21.626,264.000 22.012 C 264.412 22.110,265.006 22.232,265.318 22.283 L 265.886 22.376 265.773 27.730 C 265.711 30.674,265.586 36.008,265.496 39.583 C 265.406 43.158,265.257 49.196,265.165 53.000 C 264.401 84.567,264.389 84.798,263.508 85.163 C 263.070 85.345,260.814 84.951,259.750 84.508 C 259.462 84.388,258.219 84.009,256.417 83.492 C 256.142 83.413,255.279 83.149,254.500 82.906 C 253.721 82.662,252.858 82.412,252.583 82.350 L 252.083 82.237 251.964 76.827 C 251.657 62.869,251.342 54.781,251.081 54.125 C 250.954 53.806,250.402 53.746,249.800 53.985 C 249.589 54.069,248.967 54.304,248.417 54.508 C 244.182 56.077,244.224 55.975,243.672 66.292 C 243.577 68.056,243.421 70.906,243.324 72.625 C 243.227 74.344,243.096 76.875,243.032 78.250 L 242.917 80.750 242.344 80.805 C 242.029 80.835,241.466 80.782,241.094 80.688 C 240.721 80.595,239.592 80.319,238.583 80.075 C 237.575 79.832,236.225 79.465,235.583 79.260 C 234.942 79.055,233.622 78.632,232.651 78.320 L 230.885 77.754 230.959 73.335 C 230.999 70.905,230.950 65.879,230.848 62.167 C 230.548 51.137,230.191 40.370,230.064 38.511 L 229.946 36.773 228.848 35.747 C 228.244 35.183,227.433 34.428,227.046 34.069 L 226.342 33.417 226.171 29.502 C 225.824 21.551,225.874 21.089,227.109 20.904 C 228.392 20.712,233.757 21.233,238.250 21.987 C 238.800 22.079,239.775 22.230,240.417 22.322 C 243.052 22.699,244.245 23.042,244.424 23.474 C 244.663 24.053,244.697 31.158,244.489 36.917 C 244.188 45.233,244.181 45.142,245.118 44.655 C 246.021 44.185,250.420 41.475,250.594 41.281 C 250.717 41.144,250.732 39.950,250.643 37.417 C 250.419 31.083,250.283 22.404,250.397 21.795 C 250.690 20.235,251.589 19.968,254.750 20.502 M176.699 23.183 C 176.854 23.403,177.534 24.333,178.208 25.250 C 179.776 27.379,181.369 29.691,181.302 29.738 C 180.557 30.262,179.853 30.664,177.917 31.674 C 174.860 33.267,169.555 35.909,167.250 36.986 C 166.242 37.457,165.286 37.916,165.127 38.005 C 164.697 38.246,164.479 38.205,164.052 37.804 C 163.149 36.955,163.520 36.325,168.357 30.483 C 168.691 30.080,169.178 29.488,169.439 29.167 C 169.701 28.846,169.990 28.501,170.082 28.399 C 170.175 28.298,170.737 27.631,171.333 26.917 C 171.929 26.204,172.717 25.270,173.083 24.843 C 173.450 24.415,174.162 23.563,174.667 22.947 L 175.583 21.829 176.000 22.306 C 176.229 22.568,176.544 22.962,176.699 23.183 M355.429 29.092 C 355.687 30.467,355.246 37.767,354.679 41.500 C 354.589 42.096,354.435 43.101,354.338 43.733 C 354.138 45.030,354.175 45.203,354.508 44.541 C 354.634 44.289,354.863 43.896,355.016 43.667 C 355.170 43.438,355.503 42.875,355.758 42.417 C 357.145 39.917,364.455 30.172,365.661 29.214 C 366.265 28.734,367.875 29.994,369.858 32.501 C 371.876 35.051,372.738 36.235,374.471 38.833 C 374.991 39.612,375.458 40.287,375.509 40.333 C 375.739 40.542,376.333 41.648,376.333 41.868 C 376.333 42.156,375.471 42.856,370.983 46.213 C 370.030 46.926,369.124 47.615,368.969 47.744 C 368.815 47.873,368.477 48.113,368.219 48.278 C 367.961 48.444,367.666 48.655,367.564 48.748 C 367.365 48.927,365.209 50.499,362.333 52.559 C 361.371 53.249,360.507 53.880,360.413 53.961 C 360.319 54.042,359.832 54.384,359.330 54.721 C 358.827 55.057,358.330 55.404,358.224 55.492 C 358.117 55.579,357.592 55.927,357.057 56.264 C 355.937 56.970,355.167 57.644,355.167 57.920 C 355.167 58.166,358.688 61.406,362.583 64.743 C 364.525 66.406,365.905 67.602,366.744 68.347 C 367.114 68.675,367.675 69.163,367.990 69.430 C 368.305 69.698,368.985 70.292,369.500 70.750 C 370.531 71.668,370.983 72.063,372.833 73.667 C 373.520 74.262,374.195 74.864,374.333 75.004 C 374.471 75.143,375.142 75.743,375.825 76.337 C 378.734 78.865,381.470 81.478,381.583 81.833 C 381.664 82.089,381.408 83.361,380.996 84.750 C 380.915 85.025,380.739 85.662,380.605 86.167 C 379.513 90.273,379.194 91.258,378.021 94.132 C 376.413 98.071,376.640 97.849,375.393 96.704 C 374.921 96.271,374.284 95.690,373.976 95.413 C 373.668 95.136,372.745 94.198,371.924 93.329 C 371.103 92.461,369.716 90.999,368.841 90.081 C 367.966 89.163,366.800 87.925,366.250 87.331 C 357.115 77.459,351.771 72.039,351.443 72.312 C 351.011 72.670,350.123 76.448,349.654 79.917 C 349.240 82.987,349.090 83.887,348.659 85.884 C 348.323 87.442,348.455 87.412,341.833 87.415 C 334.057 87.417,334.098 87.436,334.832 84.167 C 335.157 82.722,335.351 81.621,336.006 77.500 C 336.101 76.904,336.254 75.967,336.347 75.417 C 336.525 74.353,336.656 73.508,337.092 70.583 C 337.377 68.674,337.504 67.926,337.825 66.250 C 337.930 65.700,338.122 64.612,338.250 63.833 C 338.378 63.054,338.566 61.967,338.667 61.417 C 338.769 60.867,338.916 60.042,338.996 59.583 C 339.075 59.125,339.224 58.262,339.327 57.667 C 339.430 57.071,339.620 55.871,339.748 55.000 C 339.876 54.129,340.063 52.967,340.165 52.417 C 340.423 51.024,340.637 49.694,340.919 47.750 C 341.051 46.833,341.240 45.596,341.337 45.000 C 341.435 44.404,341.589 43.429,341.680 42.833 C 341.771 42.237,341.918 41.300,342.006 40.750 C 342.562 37.284,342.591 37.340,340.282 37.336 C 337.337 37.330,336.957 36.919,337.318 34.131 C 337.595 31.999,337.731 31.699,338.477 31.572 C 338.810 31.515,339.308 31.405,339.583 31.328 C 339.858 31.250,340.533 31.101,341.083 30.996 C 341.633 30.892,342.383 30.736,342.750 30.650 C 343.117 30.565,344.317 30.341,345.417 30.154 C 346.517 29.967,347.829 29.735,348.333 29.640 C 350.273 29.273,350.806 29.184,352.569 28.930 C 353.569 28.786,354.425 28.631,354.471 28.584 C 354.797 28.259,355.325 28.539,355.429 29.092 M282.333 31.987 C 287.012 32.486,287.122 32.496,295.000 33.171 C 296.913 33.335,298.509 33.499,301.500 33.839 C 302.371 33.938,304.058 34.117,305.250 34.238 C 308.265 34.542,308.393 34.605,308.254 35.710 C 308.149 36.539,307.789 38.399,307.488 39.667 C 307.412 39.987,307.275 40.594,307.185 41.015 C 307.094 41.435,306.828 42.200,306.593 42.713 C 306.358 43.227,306.092 43.840,306.003 44.076 C 305.671 44.947,304.698 44.964,295.750 44.246 C 286.969 43.541,287.056 43.538,286.814 44.583 C 286.751 44.858,286.513 45.721,286.285 46.500 C 286.057 47.279,285.742 48.517,285.585 49.250 C 285.428 49.983,285.232 50.801,285.150 51.067 C 284.968 51.654,284.954 52.332,285.125 52.337 C 285.194 52.339,285.737 52.416,286.333 52.509 C 286.929 52.602,288.429 52.784,289.667 52.915 C 291.728 53.131,292.740 53.255,295.833 53.665 C 296.429 53.744,297.554 53.892,298.333 53.994 C 300.623 54.292,300.886 54.416,300.752 55.129 C 300.643 55.713,299.942 57.581,299.319 58.949 C 299.143 59.334,299.000 59.688,299.000 59.737 C 299.000 59.785,298.775 60.316,298.500 60.917 C 298.225 61.517,298.000 62.119,298.000 62.254 C 298.000 62.467,296.959 62.500,290.167 62.500 C 282.944 62.500,282.333 62.522,282.333 62.780 C 282.333 62.934,282.258 63.290,282.166 63.572 C 282.005 64.067,281.128 67.559,280.824 68.917 C 280.448 70.596,280.004 72.767,280.002 72.934 C 280.001 73.040,280.482 73.168,281.125 73.234 C 285.881 73.722,288.337 73.935,292.833 74.248 C 303.522 74.991,304.521 75.125,304.422 75.801 C 304.202 77.291,303.959 78.870,303.827 79.667 C 303.744 80.171,303.592 81.146,303.490 81.833 C 303.019 84.999,302.521 87.280,302.182 87.814 C 302.061 88.005,301.841 88.011,300.893 87.849 C 300.264 87.742,299.300 87.578,298.750 87.486 C 298.200 87.394,297.375 87.248,296.917 87.163 C 296.458 87.077,295.108 86.848,293.917 86.654 C 291.522 86.263,290.731 86.126,289.250 85.842 C 288.700 85.736,287.612 85.548,286.833 85.423 C 285.455 85.202,283.524 84.837,282.000 84.511 C 281.587 84.423,280.912 84.305,280.500 84.250 C 280.087 84.195,279.412 84.076,279.000 83.987 C 277.789 83.726,274.021 82.980,272.667 82.733 C 270.365 82.314,269.771 82.191,268.250 81.820 C 267.179 81.560,267.174 81.553,267.333 80.667 C 267.565 79.374,268.042 77.015,268.487 74.958 C 268.571 74.569,268.759 73.650,268.905 72.917 C 269.051 72.183,269.236 71.283,269.317 70.917 C 269.698 69.189,270.224 66.631,270.432 65.500 C 270.558 64.813,270.738 63.913,270.832 63.500 C 271.023 62.658,271.211 61.724,271.487 60.250 C 271.589 59.700,271.744 58.950,271.830 58.583 C 271.916 58.217,272.143 57.167,272.333 56.250 C 272.524 55.333,272.750 54.283,272.835 53.917 C 272.920 53.550,273.150 52.425,273.345 51.417 C 273.541 50.408,273.769 49.283,273.851 48.917 C 273.933 48.550,274.106 47.688,274.236 47.000 C 274.437 45.934,274.686 44.773,275.086 43.042 C 275.169 42.683,275.126 42.667,274.124 42.667 C 272.040 42.667,271.829 41.889,272.678 37.333 C 272.772 36.829,272.957 35.779,273.089 35.000 C 273.473 32.735,273.607 32.190,273.846 31.901 C 274.099 31.596,279.145 31.648,282.333 31.987 M211.917 35.673 C 215.074 36.320,219.642 38.084,220.340 38.925 C 220.576 39.209,222.257 40.333,222.446 40.333 C 222.732 40.333,223.755 41.295,224.177 41.960 C 224.824 42.981,224.915 43.823,224.683 46.659 C 224.574 47.992,224.445 49.608,224.398 50.250 L 224.310 51.417 222.205 52.583 C 221.047 53.225,219.496 54.115,218.758 54.562 C 216.945 55.658,216.861 55.645,215.399 54.046 C 210.552 48.743,204.591 49.839,202.397 56.437 C 201.389 59.468,202.039 63.746,203.794 65.624 C 205.798 67.770,210.998 67.866,213.191 65.798 C 213.316 65.680,213.868 65.208,214.417 64.750 C 214.966 64.292,215.568 63.767,215.754 63.583 C 215.941 63.400,216.372 62.992,216.712 62.677 L 217.331 62.104 218.707 62.787 C 221.217 64.033,223.658 65.167,223.830 65.167 C 223.942 65.167,224.000 67.280,224.000 71.405 L 224.000 77.643 222.042 78.798 C 217.700 81.358,215.953 82.093,212.250 82.922 C 211.608 83.065,210.933 83.220,210.750 83.265 C 208.394 83.849,206.863 83.832,202.917 83.181 C 202.458 83.105,201.521 82.952,200.833 82.841 C 198.926 82.533,197.142 81.843,196.222 81.058 C 196.024 80.889,195.722 80.637,195.551 80.500 C 195.380 80.362,194.502 79.654,193.600 78.926 L 191.961 77.602 193.018 76.676 C 195.747 74.286,198.000 71.944,197.988 71.512 C 197.978 71.190,197.604 70.752,196.478 69.750 C 195.655 69.017,194.700 68.154,194.356 67.833 C 194.012 67.512,192.913 66.500,191.913 65.583 C 188.069 62.059,186.617 60.512,186.861 60.206 C 187.567 59.321,188.408 58.331,190.080 56.417 C 190.561 55.867,191.208 55.119,191.519 54.756 C 191.829 54.392,192.334 53.829,192.641 53.506 C 193.845 52.235,193.845 52.297,192.647 51.034 C 192.062 50.417,191.039 49.306,190.374 48.566 C 189.708 47.825,189.113 47.169,189.051 47.107 C 188.922 46.977,189.684 45.340,189.875 45.336 C 189.944 45.334,190.000 45.255,190.000 45.159 C 190.000 44.987,191.111 43.164,191.315 43.000 C 191.372 42.954,191.638 42.622,191.906 42.263 C 192.464 41.515,194.321 39.667,194.514 39.667 C 194.585 39.667,194.748 39.561,194.877 39.432 C 195.572 38.738,198.621 37.136,199.802 36.846 C 200.140 36.763,201.467 36.420,202.750 36.084 C 206.574 35.082,208.595 34.992,211.917 35.673 M324.856 39.600 C 326.484 39.916,327.263 40.151,327.750 40.474 C 329.011 41.310,331.502 43.350,332.725 44.549 C 333.399 45.210,334.116 45.862,334.319 46.000 C 334.717 46.270,334.713 46.388,334.169 49.917 C 333.649 53.293,333.279 55.561,333.000 57.083 C 332.900 57.633,332.710 58.796,332.579 59.667 C 332.448 60.538,332.266 61.694,332.175 62.238 C 331.867 64.059,331.377 63.806,331.553 61.918 C 331.694 60.405,331.407 60.260,329.606 60.937 C 328.728 61.267,328.166 60.862,325.955 58.304 C 323.732 55.731,321.612 54.828,319.823 55.690 C 313.814 58.583,311.673 64.765,315.116 69.279 C 316.761 71.435,320.724 71.456,324.000 69.324 C 326.769 67.522,327.545 67.387,328.704 68.505 C 329.183 68.966,329.684 69.322,329.818 69.296 C 330.449 69.175,330.479 66.770,329.857 66.109 C 329.339 65.557,329.414 65.225,330.163 64.752 C 331.771 63.738,331.871 64.923,330.660 70.583 C 330.442 71.603,330.228 72.780,329.902 74.750 C 329.766 75.575,329.582 76.681,329.494 77.208 C 329.406 77.735,329.255 78.635,329.160 79.208 C 329.065 79.781,328.917 80.662,328.832 81.167 C 328.747 81.671,328.598 82.721,328.500 83.500 C 328.236 85.604,328.243 85.587,327.572 85.793 C 327.241 85.895,326.871 85.940,326.751 85.894 C 326.630 85.847,326.170 85.932,325.729 86.082 C 322.669 87.121,315.143 87.262,312.167 86.337 C 311.938 86.265,311.188 86.039,310.500 85.835 C 306.176 84.546,305.957 84.300,306.589 81.417 C 307.147 78.866,307.562 76.212,307.777 73.809 C 307.922 72.186,308.052 72.229,302.592 72.102 C 296.774 71.967,296.904 72.017,296.507 69.761 C 296.155 67.756,296.356 66.454,297.054 66.233 C 297.440 66.110,297.490 66.074,298.482 65.218 C 299.596 64.255,300.491 62.613,300.498 61.518 C 300.500 61.046,301.089 58.996,301.459 58.167 C 301.602 57.846,302.109 56.758,302.584 55.750 C 304.063 52.615,303.991 52.170,301.987 52.056 C 299.496 51.913,299.368 51.832,299.995 50.801 C 300.293 50.311,300.442 50.240,301.565 50.051 C 302.911 49.823,305.901 48.431,307.014 47.514 C 307.654 46.986,307.904 46.303,308.388 43.750 C 308.807 41.541,308.758 41.603,310.908 40.577 C 313.523 39.329,314.177 39.214,318.773 39.188 C 322.295 39.169,322.823 39.204,324.856 39.600 M122.139 42.167 C 122.242 43.129,122.405 45.229,122.503 46.833 C 122.601 48.438,122.750 50.500,122.835 51.417 C 122.919 52.333,123.039 53.890,123.100 54.875 C 123.231 56.966,123.262 56.988,124.202 55.645 C 125.380 53.963,125.565 53.701,127.730 50.667 C 128.875 49.063,129.879 47.673,129.961 47.579 C 130.043 47.485,130.254 47.185,130.430 46.912 C 130.606 46.640,130.840 46.304,130.949 46.167 C 131.059 46.029,131.985 44.792,133.009 43.417 C 134.032 42.042,135.022 40.750,135.209 40.547 L 135.548 40.177 136.213 40.703 C 136.873 41.226,138.392 42.655,144.367 48.373 L 147.484 51.356 146.617 52.226 C 146.140 52.705,145.305 53.581,144.760 54.173 C 144.216 54.765,142.978 56.077,142.010 57.088 C 141.042 58.099,138.637 60.641,136.667 62.738 C 134.696 64.836,132.577 67.082,131.958 67.731 C 130.557 69.200,130.437 68.965,133.125 70.002 C 134.385 70.488,135.492 70.939,135.583 71.005 C 135.675 71.071,136.237 71.293,136.833 71.499 C 137.429 71.706,138.243 72.020,138.642 72.199 C 139.042 72.378,140.028 72.776,140.833 73.083 C 142.285 73.637,143.061 73.970,144.833 74.801 C 145.811 75.259,147.197 76.557,148.167 77.921 C 151.350 82.403,156.894 85.531,164.306 87.028 L 165.362 87.242 165.283 92.246 C 165.195 97.820,165.149 98.215,164.608 98.009 C 163.940 97.755,160.603 96.135,153.083 92.416 C 123.308 77.690,125.177 78.600,125.028 78.750 C 124.967 78.811,124.941 83.463,124.971 89.088 L 125.026 99.313 124.388 99.411 C 124.037 99.465,123.375 99.580,122.917 99.665 C 122.458 99.751,121.483 99.908,120.750 100.015 C 120.017 100.121,119.004 100.275,118.500 100.356 C 116.040 100.753,114.857 100.739,114.761 100.312 C 114.605 99.614,114.310 96.312,114.217 94.208 C 114.120 92.018,114.121 92.014,115.089 89.917 C 117.006 85.761,117.797 80.166,117.021 76.250 C 116.238 72.302,115.529 70.697,113.083 67.332 C 111.588 65.274,111.706 65.601,111.509 62.987 C 111.409 61.665,111.257 59.758,111.171 58.750 C 111.085 57.742,110.938 56.017,110.844 54.917 C 110.263 48.078,110.334 48.225,107.898 48.823 C 107.175 49.000,106.300 49.196,105.953 49.259 L 105.323 49.372 105.370 47.164 L 105.417 44.955 106.417 44.628 C 106.967 44.448,108.017 44.127,108.750 43.915 C 109.483 43.703,111.096 43.222,112.333 42.845 C 113.571 42.469,115.071 42.013,115.667 41.832 C 116.263 41.651,117.162 41.383,117.667 41.236 C 118.171 41.089,118.771 40.910,119.000 40.837 C 119.229 40.765,119.754 40.613,120.167 40.499 C 120.579 40.386,121.104 40.238,121.333 40.171 C 121.883 40.010,121.920 40.099,122.139 42.167 M57.917 42.169 C 59.292 42.259,60.754 42.401,61.167 42.485 C 61.579 42.568,62.367 42.729,62.917 42.842 C 70.680 44.440,77.265 50.597,78.593 57.500 C 80.085 65.260,74.366 75.552,64.417 83.010 C 62.248 84.636,62.102 84.816,62.317 85.607 C 62.534 86.409,63.155 88.887,63.333 89.667 C 63.407 89.987,63.634 90.850,63.838 91.583 C 64.042 92.317,64.306 93.329,64.423 93.833 C 64.661 94.856,65.826 99.371,66.250 100.917 C 66.819 102.989,68.154 108.356,68.312 109.203 C 68.402 109.687,68.525 110.211,68.586 110.367 C 68.774 110.851,67.510 111.324,60.250 113.487 C 57.736 114.235,57.951 114.346,56.734 111.670 C 56.296 110.706,55.568 109.129,55.117 108.167 C 53.804 105.368,53.167 103.980,53.167 103.920 C 53.167 103.889,52.829 103.142,52.417 102.259 C 52.004 101.376,51.667 100.619,51.667 100.577 C 51.667 100.535,51.409 99.957,51.094 99.292 C 49.702 96.357,49.000 94.840,49.000 94.771 C 49.000 94.730,48.731 94.108,48.402 93.390 C 48.073 92.671,47.651 91.746,47.464 91.333 C 47.278 90.921,46.947 90.194,46.729 89.719 C 46.511 89.244,46.333 88.813,46.333 88.761 C 46.333 88.710,46.077 88.124,45.764 87.459 C 44.115 83.956,43.833 83.346,43.833 83.270 C 43.833 83.224,43.533 82.540,43.167 81.750 C 42.800 80.960,42.500 80.287,42.500 80.256 C 42.500 80.224,42.162 79.475,41.750 78.592 C 41.337 77.710,41.000 76.959,41.000 76.925 C 41.000 76.891,40.731 76.275,40.402 75.557 C 40.073 74.838,39.706 74.025,39.587 73.750 C 39.310 73.111,38.713 71.806,37.849 69.948 C 37.474 69.141,37.167 68.448,37.167 68.408 C 37.167 68.367,36.900 67.758,36.575 67.053 C 36.249 66.348,35.825 65.391,35.632 64.927 C 35.063 63.560,35.124 63.570,33.172 64.529 C 32.215 65.000,30.995 65.517,30.462 65.678 L 29.491 65.972 28.996 65.444 C 28.724 65.154,28.501 64.823,28.501 64.708 C 28.500 64.594,28.442 64.500,28.371 64.500 C 28.300 64.500,28.097 64.219,27.919 63.875 C 27.741 63.531,27.386 62.936,27.131 62.553 C 26.876 62.170,26.667 61.812,26.667 61.758 C 26.667 61.704,26.475 61.357,26.241 60.986 C 26.007 60.615,25.682 60.073,25.518 59.781 C 25.355 59.489,25.011 58.875,24.755 58.417 C 21.315 52.277,21.334 52.341,22.781 51.585 C 23.131 51.402,23.454 51.206,23.500 51.148 C 23.598 51.023,30.330 47.691,31.172 47.349 C 31.490 47.221,32.050 46.980,32.417 46.815 C 36.179 45.123,41.844 43.504,47.500 42.504 C 49.929 42.074,54.321 41.933,57.917 42.169 M175.083 45.515 C 178.661 46.388,181.349 47.673,184.333 49.937 C 185.955 51.167,186.339 51.793,185.892 52.482 C 185.570 52.979,184.120 54.706,183.500 55.333 C 183.271 55.564,182.753 56.128,182.350 56.585 C 181.947 57.042,180.860 58.205,179.934 59.168 C 179.008 60.132,176.900 62.376,175.250 64.155 C 173.600 65.935,171.633 68.034,170.880 68.820 C 169.311 70.457,169.307 70.448,171.371 70.092 C 174.011 69.636,175.800 69.115,177.000 68.455 C 178.623 67.561,179.578 66.835,181.473 65.053 L 182.214 64.356 183.218 65.219 C 183.770 65.695,184.682 66.496,185.244 67.000 C 187.424 68.955,190.102 71.318,190.486 71.626 L 190.889 71.948 189.725 73.051 C 189.085 73.657,188.342 74.323,188.072 74.529 C 187.803 74.736,187.546 74.947,187.500 74.999 C 186.726 75.866,182.612 78.246,180.167 79.241 C 179.571 79.483,178.933 79.749,178.750 79.831 C 177.248 80.502,174.144 81.312,171.147 81.815 C 167.809 82.375,163.257 81.808,159.878 80.412 C 151.139 76.801,146.975 67.888,149.917 59.093 C 150.562 57.167,151.958 54.406,152.493 54.000 C 152.553 53.954,152.730 53.730,152.886 53.503 C 153.309 52.884,155.062 51.107,155.960 50.385 C 156.394 50.036,156.787 49.712,156.833 49.666 C 157.578 48.917,161.298 47.060,163.333 46.421 C 165.625 45.702,166.041 45.610,168.583 45.261 C 169.544 45.129,174.257 45.313,175.083 45.515 M267.357 49.417 L 267.200 50.083 267.186 49.333 C 267.178 48.921,267.226 48.396,267.294 48.167 C 267.496 47.481,267.552 48.588,267.357 49.417 M292.375 49.361 L 293.667 49.558 293.667 50.085 C 293.667 50.811,293.178 51.000,291.303 51.000 C 288.792 51.000,286.954 50.102,287.778 49.278 C 287.961 49.095,290.988 49.150,292.375 49.361 M164.917 53.399 C 159.590 55.352,157.165 61.456,159.677 66.587 C 160.353 67.969,161.777 69.667,162.261 69.667 C 162.653 69.667,165.373 67.028,167.587 64.500 C 168.028 63.996,168.508 63.471,168.653 63.333 C 168.798 63.195,169.403 62.520,169.997 61.833 C 170.591 61.146,171.116 60.546,171.163 60.500 C 173.453 58.295,175.030 55.460,174.292 54.876 C 172.133 53.169,167.525 52.443,164.917 53.399 M224.225 57.859 C 224.414 60.516,224.368 61.833,224.087 61.833 C 223.690 61.833,222.715 61.443,219.878 60.148 C 218.928 59.714,218.796 59.452,219.375 59.148 C 219.581 59.039,219.787 58.901,219.833 58.841 C 219.965 58.669,222.526 57.167,222.688 57.167 C 222.768 57.167,222.833 57.092,222.833 57.000 C 222.833 56.908,222.946 56.833,223.083 56.833 C 223.221 56.833,223.333 56.764,223.333 56.679 C 223.333 56.548,223.556 56.442,224.017 56.353 C 224.072 56.342,224.165 57.020,224.225 57.859 M169.726 56.645 C 170.012 56.758,170.000 56.809,169.560 57.342 C 168.550 58.566,167.353 59.947,166.667 60.682 C 166.346 61.025,165.708 61.736,165.250 62.261 C 164.208 63.456,162.710 65.000,162.593 65.000 C 161.879 65.000,161.804 61.579,162.486 60.121 C 163.413 58.139,165.517 56.718,166.636 57.317 C 167.187 57.612,168.833 57.555,168.833 57.242 C 168.833 57.100,168.590 56.878,168.292 56.748 L 167.750 56.513 168.583 56.518 C 169.042 56.521,169.556 56.578,169.726 56.645 M58.500 57.922 C 56.092 58.218,54.655 58.735,54.401 59.398 C 54.309 59.637,54.885 62.070,55.659 64.708 C 55.746 65.006,56.002 65.925,56.228 66.750 C 56.454 67.575,56.748 68.587,56.881 69.000 C 57.014 69.412,57.251 70.200,57.408 70.750 C 57.565 71.300,57.754 71.938,57.828 72.167 C 57.902 72.396,58.241 73.483,58.582 74.583 C 59.865 78.730,59.798 78.650,61.196 77.708 C 63.216 76.346,66.048 73.844,67.053 72.531 C 68.206 71.026,69.164 68.048,69.166 65.966 C 69.168 62.478,67.401 59.655,64.486 58.490 C 63.713 58.180,60.922 57.631,60.417 57.688 C 60.325 57.698,59.462 57.804,58.500 57.922 M205.790 58.331 C 207.561 59.411,210.667 63.279,210.667 64.406 C 210.667 65.314,207.406 65.931,206.400 65.213 C 204.743 64.030,203.839 62.180,203.835 59.966 C 203.832 58.035,204.453 57.515,205.790 58.331 M316.891 61.408 C 317.152 61.633,317.421 61.839,317.488 61.866 C 318.102 62.118,320.779 67.709,320.637 68.445 C 320.341 69.987,315.959 69.021,315.404 67.292 C 315.353 67.131,315.251 67.000,315.178 67.000 C 314.870 67.000,314.469 65.168,314.585 64.291 C 314.987 61.263,315.694 60.379,316.891 61.408 M61.083 62.000 C 61.022 62.099,61.217 62.167,61.564 62.167 C 61.884 62.167,62.193 62.242,62.250 62.333 C 62.307 62.425,62.517 62.500,62.718 62.500 C 64.988 62.503,65.553 68.094,63.526 70.500 C 63.333 70.729,62.970 71.120,62.718 71.369 L 62.261 71.822 61.952 70.953 C 61.782 70.475,61.579 69.933,61.499 69.750 C 61.141 68.920,60.586 67.118,59.764 64.117 C 59.447 62.956,59.424 62.059,59.708 61.944 C 60.103 61.784,61.189 61.829,61.083 62.000 M144.079 67.042 C 144.145 68.119,144.141 69.000,144.070 69.000 C 143.606 69.000,139.583 67.576,139.193 67.274 C 139.019 67.139,139.481 66.607,141.276 64.875 L 143.583 62.649 143.771 63.866 C 143.874 64.536,144.013 65.965,144.079 67.042 M101.737 64.937 C 105.454 65.848,109.174 68.425,110.600 71.076 C 112.711 75.002,113.232 78.180,112.515 82.750 C 112.138 85.150,109.878 90.343,108.852 91.167 C 108.795 91.212,108.550 91.516,108.309 91.840 C 105.627 95.443,99.626 99.174,95.750 99.649 C 88.549 100.530,83.614 98.666,80.131 93.750 C 77.762 90.405,76.712 84.743,77.829 81.333 C 77.904 81.104,78.093 80.467,78.248 79.917 C 78.882 77.673,80.269 75.041,81.979 72.833 C 82.624 72.001,85.656 69.000,85.852 69.000 C 85.920 69.000,86.080 68.896,86.208 68.768 C 86.957 68.019,90.052 66.316,91.981 65.592 C 94.749 64.553,99.007 64.267,101.737 64.937 M285.051 67.326 C 285.436 67.414,286.468 67.532,287.346 67.589 L 288.942 67.693 288.482 68.186 C 288.089 68.606,288.005 68.874,287.906 70.010 L 287.790 71.342 285.353 71.296 L 282.917 71.250 282.943 70.119 C 282.967 69.065,283.300 67.861,283.702 67.375 C 283.909 67.125,284.133 67.117,285.051 67.326 M95.333 68.683 C 94.130 68.992,93.288 69.305,92.583 69.705 C 92.400 69.809,92.036 70.003,91.775 70.135 C 88.374 71.852,87.143 76.829,89.208 80.519 C 92.455 86.321,101.667 86.247,104.772 80.394 C 105.640 78.757,105.890 75.383,105.264 73.750 C 104.791 72.515,104.732 72.525,104.428 73.890 C 103.485 78.127,98.503 79.578,95.186 76.581 C 92.888 74.505,93.584 71.268,96.765 69.233 C 98.260 68.277,97.721 68.070,95.333 68.683 " stroke="none" fill="#245cab" fill-rule="evenodd"></path><path id="path3" d="M251.702 20.414 C 250.254 21.054,250.190 21.589,250.503 30.333 C 250.600 33.037,250.747 36.600,250.829 38.250 C 250.923 40.141,250.920 41.271,250.819 41.307 C 250.732 41.338,250.565 41.459,250.448 41.576 C 250.330 41.693,250.069 41.842,249.867 41.906 C 249.665 41.970,249.500 42.092,249.500 42.178 C 249.500 42.263,249.424 42.333,249.332 42.333 C 249.239 42.333,248.524 42.746,247.743 43.250 C 246.961 43.754,246.249 44.167,246.161 44.167 C 246.072 44.167,246.000 44.242,246.000 44.333 C 246.000 44.425,245.918 44.500,245.817 44.500 C 245.716 44.500,245.372 44.624,245.051 44.776 C 244.205 45.178,244.140 44.975,244.242 42.250 C 244.457 36.493,244.532 24.432,244.357 23.846 C 244.202 23.328,244.075 23.215,243.463 23.048 C 242.201 22.705,239.695 22.242,237.750 21.992 C 237.017 21.897,235.892 21.748,235.250 21.660 C 231.955 21.206,231.237 21.136,229.083 21.058 C 225.885 20.942,226.083 20.729,226.086 24.278 C 226.088 25.821,226.156 28.471,226.237 30.167 L 226.386 33.250 226.996 33.833 C 227.332 34.154,228.172 34.942,228.863 35.583 L 230.120 36.750 230.234 40.333 C 230.297 42.304,230.415 45.717,230.496 47.917 C 230.578 50.117,230.744 54.617,230.864 57.917 C 230.985 61.217,231.083 67.012,231.083 70.795 L 231.083 77.674 231.583 77.823 C 231.858 77.905,232.533 78.138,233.083 78.341 C 233.633 78.544,234.308 78.772,234.583 78.848 C 234.858 78.924,235.496 79.108,236.000 79.257 C 236.947 79.538,237.443 79.681,238.583 80.003 C 239.711 80.322,242.494 80.773,242.669 80.665 C 242.841 80.559,243.005 78.070,243.417 69.333 C 243.776 61.723,244.109 57.769,244.470 56.833 C 244.861 55.821,248.158 54.141,250.232 53.897 C 251.337 53.767,251.280 53.627,251.413 56.833 C 251.469 58.163,251.582 60.487,251.666 62.000 C 251.750 63.512,251.911 68.639,252.023 73.392 C 252.223 81.880,252.233 82.037,252.572 82.176 C 252.761 82.253,253.592 82.513,254.417 82.754 C 255.802 83.158,256.484 83.369,258.750 84.096 C 261.428 84.955,263.261 85.239,263.712 84.865 C 264.230 84.435,264.350 82.202,264.752 65.500 C 264.892 59.679,265.078 51.992,265.166 48.417 C 265.254 44.842,265.399 38.504,265.489 34.333 C 265.578 30.162,265.701 25.806,265.762 24.652 L 265.873 22.554 265.145 22.367 C 264.744 22.263,263.742 22.059,262.917 21.914 C 262.092 21.768,261.267 21.611,261.083 21.566 C 260.668 21.462,258.245 21.093,254.750 20.601 C 253.742 20.459,252.767 20.304,252.583 20.257 C 252.400 20.210,252.003 20.280,251.702 20.414 M353.000 28.919 C 351.401 29.224,349.926 29.487,348.333 29.750 C 346.939 29.980,345.563 30.233,344.250 30.500 C 343.883 30.575,343.171 30.714,342.667 30.810 C 342.162 30.906,341.112 31.109,340.333 31.260 C 339.554 31.411,338.714 31.572,338.466 31.618 C 337.823 31.738,337.484 32.860,337.446 34.988 C 337.409 37.054,337.288 36.952,340.089 37.206 L 342.417 37.417 342.401 38.000 C 342.380 38.801,341.805 43.031,341.342 45.792 C 340.888 48.495,340.803 49.020,340.583 50.500 C 340.337 52.158,340.143 53.357,339.827 55.167 C 339.723 55.762,339.527 56.962,339.391 57.833 C 339.255 58.704,339.077 59.792,338.995 60.250 C 338.913 60.708,338.769 61.533,338.673 62.083 C 338.578 62.633,338.422 63.496,338.326 64.000 C 338.230 64.504,338.046 65.554,337.917 66.333 C 337.789 67.112,337.601 68.200,337.500 68.750 C 337.191 70.433,336.993 71.673,336.741 73.500 C 336.405 75.924,336.048 78.171,335.667 80.250 C 335.566 80.800,335.379 81.887,335.252 82.667 C 335.125 83.446,334.905 84.514,334.763 85.040 C 334.205 87.111,334.462 87.208,340.748 87.295 C 345.929 87.366,347.607 87.286,348.076 86.942 C 348.463 86.660,348.767 85.329,349.340 81.417 C 349.637 79.387,349.810 78.295,350.092 76.667 C 350.243 75.796,350.404 74.839,350.451 74.540 C 350.498 74.241,350.604 73.956,350.685 73.905 C 350.767 73.855,350.833 73.680,350.833 73.516 C 350.833 73.154,351.286 72.216,351.534 72.062 C 351.636 72.000,353.375 73.650,355.526 75.851 C 360.187 80.618,360.062 80.486,365.250 86.088 C 366.258 87.176,367.421 88.413,367.833 88.835 C 368.246 89.258,369.105 90.161,369.743 90.843 C 373.727 95.103,375.077 96.375,374.774 95.585 C 374.708 95.414,374.780 95.333,374.999 95.333 C 375.177 95.333,375.399 95.189,375.493 95.013 C 375.587 94.837,375.923 94.608,376.240 94.503 C 376.666 94.363,376.788 94.244,376.712 94.044 C 376.634 93.841,376.679 93.802,376.896 93.886 C 377.091 93.960,377.145 93.933,377.065 93.803 C 376.987 93.677,377.035 93.644,377.202 93.709 C 377.469 93.811,377.833 93.557,377.833 93.268 C 377.833 93.177,377.723 93.249,377.589 93.426 C 377.454 93.604,377.342 93.668,377.339 93.567 C 377.332 93.332,377.882 92.833,378.148 92.833 C 378.261 92.833,378.309 92.763,378.256 92.677 C 378.203 92.591,378.336 92.347,378.551 92.135 C 378.767 91.923,379.029 91.450,379.134 91.083 C 381.168 83.994,381.563 82.376,381.383 81.866 C 381.246 81.477,378.272 78.627,375.333 76.069 C 374.921 75.710,374.546 75.378,374.500 75.330 C 374.454 75.283,373.858 74.758,373.174 74.163 C 372.491 73.569,371.740 72.896,371.505 72.667 C 371.270 72.438,370.713 71.950,370.268 71.583 C 369.823 71.217,369.083 70.579,368.624 70.167 C 367.402 69.068,366.936 68.659,366.060 67.917 C 365.628 67.550,365.154 67.137,365.008 67.000 C 364.862 66.862,364.294 66.375,363.746 65.917 C 363.198 65.458,362.637 64.969,362.500 64.830 C 362.363 64.691,361.838 64.241,361.334 63.830 C 360.830 63.419,360.259 62.933,360.064 62.750 C 359.870 62.567,359.244 62.004,358.673 61.500 C 358.103 60.996,357.028 60.011,356.286 59.312 L 354.936 58.040 355.222 57.603 C 355.380 57.362,355.824 56.967,356.209 56.723 C 356.594 56.480,357.005 56.185,357.122 56.068 C 357.239 55.951,357.485 55.808,357.668 55.750 C 357.850 55.692,358.000 55.579,358.000 55.500 C 358.000 55.421,358.137 55.312,358.304 55.259 C 358.471 55.206,358.758 55.023,358.942 54.852 C 359.126 54.680,359.608 54.332,360.013 54.079 C 360.418 53.825,360.787 53.569,360.833 53.510 C 360.908 53.414,361.751 52.805,366.149 49.667 C 366.855 49.163,367.822 48.450,368.297 48.083 C 368.772 47.717,369.577 47.117,370.085 46.750 C 370.594 46.383,371.147 45.971,371.316 45.833 C 371.484 45.696,371.870 45.396,372.172 45.167 C 374.900 43.101,375.248 42.829,375.874 42.281 L 376.331 41.880 375.401 40.399 C 374.890 39.585,374.414 38.881,374.344 38.834 C 374.274 38.788,374.118 38.563,373.998 38.335 C 373.741 37.849,372.223 35.729,371.795 35.260 C 371.633 35.083,371.500 34.888,371.500 34.827 C 371.500 34.767,371.364 34.561,371.198 34.369 C 371.032 34.178,370.751 33.823,370.573 33.580 C 370.253 33.144,370.106 32.965,369.140 31.833 C 368.039 30.543,366.947 29.495,366.400 29.203 C 366.014 28.996,364.340 30.601,363.309 32.167 C 363.158 32.396,362.896 32.733,362.726 32.917 C 362.556 33.100,362.194 33.550,361.922 33.917 C 361.649 34.283,361.293 34.729,361.130 34.906 C 360.967 35.084,360.833 35.279,360.833 35.339 C 360.833 35.400,360.702 35.604,360.542 35.794 C 359.820 36.647,359.671 36.840,359.390 37.281 C 359.226 37.539,359.044 37.787,358.986 37.833 C 358.754 38.017,356.331 41.693,355.333 43.375 C 354.748 44.360,354.222 45.167,354.164 45.167 C 354.063 45.167,354.273 43.305,354.663 40.750 C 355.205 37.188,355.557 32.168,355.406 30.125 L 355.298 28.667 354.691 28.689 C 354.357 28.702,353.596 28.805,353.000 28.919 M274.218 31.824 C 273.752 32.026,273.371 33.536,272.639 38.083 C 272.041 41.793,272.195 42.284,274.031 42.515 C 275.434 42.691,275.373 42.652,275.188 43.265 C 275.108 43.532,274.954 44.163,274.846 44.667 C 274.645 45.607,274.456 46.463,274.172 47.708 C 274.083 48.098,273.850 49.242,273.653 50.250 C 273.457 51.258,273.233 52.383,273.156 52.750 C 273.079 53.117,272.901 54.017,272.761 54.750 C 272.620 55.483,272.429 56.421,272.336 56.833 C 272.242 57.246,272.091 57.958,272.000 58.417 C 271.909 58.875,271.758 59.587,271.664 60.000 C 271.571 60.413,271.391 61.313,271.264 62.000 C 271.137 62.688,270.874 63.962,270.679 64.833 C 270.483 65.704,270.207 67.054,270.065 67.833 C 269.923 68.612,269.741 69.550,269.660 69.917 C 269.580 70.283,269.437 70.958,269.342 71.417 C 269.246 71.875,269.093 72.587,269.001 73.000 C 268.853 73.660,268.651 74.654,268.169 77.083 C 268.096 77.450,267.879 78.462,267.688 79.333 C 267.167 81.694,267.105 81.599,269.417 81.992 C 269.967 82.085,271.129 82.315,272.000 82.502 C 272.871 82.689,274.183 82.943,274.917 83.066 C 275.650 83.190,277.188 83.481,278.333 83.713 C 279.479 83.946,281.092 84.258,281.917 84.406 C 284.926 84.948,287.098 85.357,287.750 85.505 C 288.117 85.588,288.979 85.744,289.667 85.850 C 290.354 85.956,291.254 86.102,291.667 86.174 C 292.079 86.246,292.867 86.382,293.417 86.477 C 293.967 86.572,294.867 86.733,295.417 86.835 C 295.967 86.937,297.129 87.124,298.000 87.252 C 298.871 87.380,300.103 87.565,300.738 87.663 C 301.373 87.760,301.947 87.783,302.013 87.712 C 302.212 87.500,302.683 85.980,302.855 85.000 C 302.943 84.496,303.084 83.708,303.170 83.250 C 303.255 82.792,303.444 81.592,303.590 80.583 C 303.889 78.526,304.103 77.086,304.265 76.050 C 304.398 75.206,304.567 75.264,301.167 74.999 C 299.837 74.896,297.887 74.741,296.833 74.656 C 293.829 74.412,291.029 74.193,287.417 73.922 C 283.631 73.637,281.339 73.409,280.523 73.236 L 279.963 73.118 280.056 72.267 C 280.107 71.799,280.227 71.079,280.324 70.667 C 280.421 70.254,280.605 69.429,280.734 68.833 C 280.863 68.237,281.196 66.887,281.475 65.833 C 282.061 63.615,282.113 63.408,282.243 62.792 L 282.340 62.333 290.068 62.333 L 297.795 62.333 298.064 61.766 C 298.212 61.455,298.333 61.129,298.333 61.042 C 298.333 60.955,298.438 60.667,298.565 60.401 C 298.941 59.616,299.262 58.846,299.916 57.167 C 300.254 56.296,300.600 55.453,300.682 55.294 C 301.085 54.522,300.339 54.292,295.667 53.746 C 294.429 53.602,292.892 53.417,292.250 53.335 C 291.608 53.254,290.408 53.106,289.583 53.007 C 288.758 52.908,287.371 52.734,286.500 52.622 L 284.917 52.417 284.963 51.750 C 285.012 51.050,286.340 45.559,286.736 44.421 C 287.049 43.521,287.520 43.415,290.167 43.653 C 291.313 43.756,293.150 43.917,294.250 44.012 C 295.350 44.106,296.850 44.254,297.583 44.341 C 298.317 44.429,300.381 44.549,302.171 44.608 C 305.752 44.728,305.868 44.701,306.105 43.697 C 306.163 43.451,306.362 42.913,306.547 42.500 C 306.975 41.547,307.284 40.367,307.836 37.583 C 308.276 35.366,308.257 34.861,307.731 34.745 C 307.466 34.687,307.146 34.606,307.018 34.566 C 306.758 34.483,304.943 34.275,301.250 33.904 C 296.776 33.454,295.446 33.325,293.583 33.161 C 292.575 33.072,291.000 32.928,290.083 32.840 C 289.167 32.753,287.104 32.561,285.500 32.415 C 283.896 32.269,281.833 32.078,280.917 31.992 C 278.261 31.741,274.619 31.649,274.218 31.824 M205.917 35.423 C 203.389 35.969,199.976 36.859,199.250 37.161 C 198.704 37.388,197.787 37.773,197.208 38.018 C 196.910 38.145,196.667 38.305,196.667 38.374 C 196.667 38.443,196.560 38.500,196.431 38.500 C 196.301 38.500,196.169 38.556,196.139 38.625 C 196.108 38.694,195.666 39.031,195.156 39.374 C 193.788 40.294,191.929 42.205,191.088 43.555 C 190.906 43.846,190.700 44.108,190.629 44.139 C 190.558 44.169,190.500 44.294,190.500 44.417 C 190.500 44.539,190.444 44.664,190.375 44.694 C 190.306 44.725,190.101 45.050,189.918 45.417 C 189.736 45.783,189.548 46.121,189.502 46.167 C 189.078 46.582,189.038 46.974,189.386 47.292 C 189.720 47.598,191.104 49.120,192.272 50.467 C 192.535 50.770,192.994 51.251,193.292 51.536 C 194.017 52.229,194.001 52.276,192.500 53.829 C 192.271 54.066,191.714 54.697,191.262 55.232 C 190.811 55.767,190.193 56.469,189.889 56.791 C 189.585 57.113,189.167 57.600,188.960 57.872 C 188.753 58.144,188.431 58.528,188.246 58.725 C 187.680 59.326,187.000 60.271,187.000 60.458 C 187.000 60.674,189.719 63.418,191.833 65.333 C 192.693 66.112,193.668 67.012,194.001 67.333 C 194.334 67.654,195.154 68.404,195.824 69.000 C 197.822 70.776,198.167 71.154,198.167 71.568 C 198.167 71.922,196.722 73.478,194.567 75.445 C 194.283 75.705,193.664 76.268,193.192 76.697 C 192.209 77.590,192.205 77.600,192.708 78.034 C 192.915 78.212,193.271 78.522,193.500 78.724 C 193.729 78.925,194.217 79.314,194.583 79.587 C 194.950 79.860,195.325 80.169,195.417 80.273 C 196.532 81.542,199.840 82.779,202.917 83.077 C 203.558 83.139,204.368 83.263,204.715 83.353 C 205.063 83.443,206.151 83.520,207.132 83.523 C 209.323 83.531,211.137 83.187,215.417 81.952 C 216.823 81.546,220.090 79.880,223.036 78.067 L 223.823 77.583 223.828 71.454 L 223.833 65.325 223.458 65.182 C 223.252 65.104,221.921 64.477,220.500 63.789 C 217.206 62.194,217.323 62.226,216.793 62.790 C 216.555 63.043,216.035 63.528,215.638 63.868 C 215.241 64.208,214.670 64.712,214.369 64.989 C 210.637 68.417,204.832 68.170,202.864 64.500 C 200.608 60.293,202.340 53.014,205.986 51.381 C 209.512 49.801,212.005 50.469,215.368 53.895 C 216.819 55.373,217.429 55.648,217.832 55.005 C 217.878 54.930,218.297 54.655,218.763 54.393 C 219.228 54.131,220.663 53.322,221.952 52.596 L 224.295 51.275 224.398 49.762 C 224.698 45.310,224.705 43.093,224.420 42.750 C 224.267 42.567,224.197 42.522,224.263 42.651 C 224.345 42.809,224.319 42.844,224.184 42.761 C 224.030 42.665,224.033 42.576,224.200 42.371 C 224.387 42.141,224.374 42.120,224.106 42.221 C 223.873 42.308,223.820 42.275,223.893 42.085 C 223.946 41.947,223.918 41.833,223.831 41.833 C 223.744 41.833,223.629 41.659,223.576 41.446 C 223.510 41.183,223.118 40.864,222.354 40.451 C 221.736 40.117,221.069 39.710,220.873 39.547 C 220.677 39.384,220.344 39.110,220.133 38.938 C 219.803 38.669,218.511 38.024,216.341 37.045 C 216.024 36.902,215.386 36.678,214.924 36.548 C 214.462 36.417,213.821 36.235,213.500 36.143 C 210.782 35.361,207.599 35.059,205.917 35.423 M315.417 39.323 C 313.781 39.456,313.064 39.670,311.167 40.594 C 310.479 40.929,309.892 41.190,309.862 41.174 C 309.833 41.158,309.674 41.300,309.509 41.489 C 309.345 41.678,309.132 41.833,309.036 41.833 C 308.860 41.833,308.709 42.426,308.335 44.583 C 307.888 47.159,307.676 47.418,304.700 49.027 C 303.482 49.686,302.872 49.908,301.917 50.042 C 300.749 50.206,300.676 50.243,300.264 50.872 C 299.654 51.803,299.683 51.833,301.172 51.833 C 303.997 51.833,304.348 52.816,302.622 55.896 C 302.372 56.343,302.167 56.765,302.167 56.834 C 302.167 56.902,301.990 57.362,301.773 57.854 C 301.115 59.352,300.675 60.720,300.571 61.590 C 300.344 63.489,299.380 64.938,297.606 66.046 C 296.767 66.570,296.285 67.340,296.427 67.932 C 296.468 68.107,296.569 68.873,296.650 69.634 C 296.896 71.935,297.079 72.000,303.321 72.000 C 307.034 72.000,307.656 72.036,307.844 72.262 C 308.112 72.585,308.233 74.295,308.020 74.750 C 307.934 74.933,307.777 75.871,307.670 76.833 C 307.564 77.796,307.376 78.808,307.253 79.083 C 307.130 79.358,306.943 80.108,306.838 80.750 C 306.733 81.392,306.570 82.266,306.477 82.694 C 306.213 83.902,306.561 84.282,308.750 85.168 C 309.118 85.317,311.748 86.097,312.667 86.330 C 315.807 87.124,321.302 87.073,324.750 86.217 C 325.300 86.080,326.087 85.907,326.500 85.832 C 327.543 85.642,328.166 85.380,328.170 85.129 C 328.172 85.012,328.248 84.429,328.338 83.833 C 328.429 83.237,328.612 82.000,328.744 81.083 C 329.009 79.255,329.224 77.926,329.492 76.458 C 329.588 75.931,329.745 75.069,329.842 74.542 C 329.938 74.015,330.125 72.946,330.258 72.167 C 330.641 69.919,330.787 69.157,331.052 68.000 C 331.381 66.565,331.567 64.561,331.383 64.447 C 331.182 64.323,329.972 64.880,329.683 65.230 C 329.478 65.478,329.503 65.568,329.891 65.973 C 330.285 66.384,330.333 66.565,330.333 67.620 C 330.333 69.620,329.917 69.853,328.610 68.583 C 327.658 67.658,327.333 67.641,325.866 68.443 C 322.007 70.554,320.404 71.167,318.748 71.167 C 315.007 71.167,312.270 66.339,313.693 62.250 C 314.433 60.123,314.798 59.557,316.529 57.846 C 320.455 53.968,322.464 54.267,327.167 59.432 C 328.403 60.789,329.009 61.141,329.583 60.834 C 329.819 60.707,330.366 60.599,330.798 60.593 L 331.583 60.583 331.525 61.958 C 331.436 64.050,331.821 63.778,332.174 61.500 C 332.253 60.996,332.400 60.133,332.502 59.583 C 332.603 59.033,332.795 57.871,332.927 57.000 C 333.152 55.519,333.238 55.003,333.667 52.542 C 334.589 47.262,334.595 46.358,333.711 45.869 C 333.323 45.654,332.883 45.277,332.733 45.031 C 332.108 44.008,327.454 40.333,326.784 40.333 C 326.604 40.333,326.527 40.258,326.594 40.149 C 326.670 40.026,326.595 40.000,326.368 40.072 C 326.181 40.132,325.980 40.102,325.920 40.006 C 325.861 39.910,325.637 39.876,325.422 39.930 C 325.189 39.989,324.861 39.916,324.607 39.750 C 324.354 39.585,324.045 39.516,323.841 39.581 C 323.654 39.640,323.500 39.624,323.500 39.545 C 323.500 39.466,322.881 39.386,322.125 39.367 C 321.369 39.348,319.887 39.303,318.833 39.267 C 317.779 39.231,316.242 39.256,315.417 39.323 " stroke="none" fill="#74fcfc" fill-rule="evenodd"></path><path id="path4" d="M227.625 20.955 C 228.015 20.990,228.652 20.990,229.042 20.955 C 229.431 20.920,229.112 20.892,228.333 20.892 C 227.554 20.892,227.235 20.920,227.625 20.955 M244.573 29.917 C 244.573 32.483,244.596 33.510,244.625 32.198 C 244.653 30.886,244.653 28.786,244.625 27.532 C 244.596 26.277,244.573 27.350,244.573 29.917 M355.375 29.583 C 355.377 29.950,355.411 30.080,355.451 29.873 C 355.491 29.666,355.490 29.366,355.448 29.206 C 355.406 29.047,355.374 29.217,355.375 29.583 M226.220 30.167 C 226.220 30.762,226.250 31.006,226.287 30.708 C 226.324 30.410,226.324 29.923,226.287 29.625 C 226.250 29.327,226.220 29.571,226.220 30.167 M282.460 32.118 C 282.668 32.158,282.968 32.156,283.127 32.115 C 283.286 32.073,283.117 32.040,282.750 32.042 C 282.383 32.044,282.253 32.078,282.460 32.118 M285.794 32.451 C 286.001 32.491,286.301 32.490,286.460 32.448 C 286.620 32.406,286.450 32.374,286.083 32.375 C 285.717 32.377,285.586 32.411,285.794 32.451 M289.127 32.785 C 289.334 32.824,289.634 32.823,289.794 32.781 C 289.953 32.739,289.783 32.707,289.417 32.709 C 289.050 32.711,288.920 32.745,289.127 32.785 M355.387 33.833 C 355.387 34.429,355.417 34.673,355.454 34.375 C 355.491 34.077,355.491 33.590,355.454 33.292 C 355.417 32.994,355.387 33.237,355.387 33.833 M298.708 33.615 C 298.869 33.657,299.131 33.657,299.292 33.615 C 299.452 33.573,299.321 33.539,299.000 33.539 C 298.679 33.539,298.548 33.573,298.708 33.615 M301.708 33.948 C 301.869 33.990,302.131 33.990,302.292 33.948 C 302.452 33.906,302.321 33.872,302.000 33.872 C 301.679 33.872,301.548 33.906,301.708 33.948 M304.542 34.282 C 304.702 34.323,304.965 34.323,305.125 34.282 C 305.285 34.240,305.154 34.205,304.833 34.205 C 304.512 34.205,304.381 34.240,304.542 34.282 M230.055 37.917 C 230.055 38.558,230.086 38.800,230.122 38.455 C 230.158 38.109,230.157 37.584,230.120 37.288 C 230.083 36.992,230.054 37.275,230.055 37.917 M342.372 38.000 C 342.372 38.321,342.406 38.452,342.448 38.292 C 342.490 38.131,342.490 37.869,342.448 37.708 C 342.406 37.548,342.372 37.679,342.372 38.000 M315.292 39.287 C 315.590 39.324,316.077 39.324,316.375 39.287 C 316.673 39.250,316.429 39.220,315.833 39.220 C 315.237 39.220,314.994 39.250,315.292 39.287 M319.875 39.290 C 320.402 39.323,321.265 39.323,321.792 39.290 C 322.319 39.257,321.887 39.230,320.833 39.230 C 319.779 39.230,319.348 39.257,319.875 39.290 M331.000 43.052 C 331.000 43.081,331.244 43.325,331.542 43.594 L 332.083 44.083 331.594 43.542 C 331.138 43.037,331.000 42.923,331.000 43.052 M224.723 44.500 C 224.723 45.188,224.752 45.469,224.788 45.125 C 224.824 44.781,224.824 44.219,224.788 43.875 C 224.752 43.531,224.723 43.813,224.723 44.500 M289.708 43.786 C 289.960 43.824,290.373 43.824,290.625 43.786 C 290.877 43.748,290.671 43.717,290.167 43.717 C 289.662 43.717,289.456 43.748,289.708 43.786 M296.127 44.285 C 296.334 44.324,296.634 44.323,296.794 44.281 C 296.953 44.239,296.783 44.207,296.417 44.209 C 296.050 44.211,295.920 44.245,296.127 44.285 M300.044 44.620 C 300.297 44.658,300.672 44.657,300.877 44.617 C 301.082 44.578,300.875 44.546,300.417 44.548 C 299.958 44.549,299.791 44.581,300.044 44.620 M230.393 46.500 C 230.393 47.371,230.422 47.727,230.456 47.292 C 230.490 46.856,230.490 46.144,230.456 45.708 C 230.422 45.273,230.393 45.629,230.393 46.500 M191.167 49.417 C 191.478 49.737,191.770 50.000,191.815 50.000 C 191.861 50.000,191.644 49.737,191.333 49.417 C 191.022 49.096,190.730 48.833,190.685 48.833 C 190.639 48.833,190.856 49.096,191.167 49.417 M224.381 49.583 C 224.382 50.042,224.415 50.209,224.453 49.956 C 224.491 49.703,224.490 49.328,224.451 49.123 C 224.411 48.918,224.380 49.125,224.381 49.583 M265.066 55.167 C 265.066 56.496,265.092 57.040,265.124 56.375 C 265.155 55.710,265.155 54.623,265.124 53.958 C 265.092 53.294,265.066 53.837,265.066 55.167 M288.875 52.948 C 289.035 52.990,289.298 52.990,289.458 52.948 C 289.619 52.906,289.487 52.872,289.167 52.872 C 288.846 52.872,288.715 52.906,288.875 52.948 M215.667 54.385 C 215.667 54.414,215.910 54.658,216.208 54.927 L 216.750 55.417 216.260 54.875 C 215.804 54.370,215.667 54.257,215.667 54.385 M251.385 57.583 C 251.386 58.133,251.417 58.338,251.454 58.039 C 251.491 57.739,251.490 57.289,251.452 57.039 C 251.414 56.788,251.384 57.033,251.385 57.583 M201.872 58.500 C 201.872 58.821,201.906 58.952,201.948 58.792 C 201.990 58.631,201.990 58.369,201.948 58.208 C 201.906 58.048,201.872 58.179,201.872 58.500 M201.872 60.833 C 201.872 61.154,201.906 61.285,201.948 61.125 C 201.990 60.965,201.990 60.702,201.948 60.542 C 201.906 60.381,201.872 60.512,201.872 60.833 M230.898 62.833 C 230.898 63.979,230.924 64.448,230.957 63.875 C 230.989 63.302,230.989 62.365,230.957 61.792 C 230.924 61.219,230.898 61.688,230.898 62.833 M290.083 62.333 L 282.250 62.422 290.032 62.461 C 295.083 62.486,297.850 62.442,297.917 62.333 C 297.973 62.242,297.996 62.184,297.968 62.206 C 297.940 62.227,294.392 62.285,290.083 62.333 M251.728 64.917 C 251.728 65.833,251.756 66.187,251.790 65.703 C 251.824 65.218,251.823 64.468,251.789 64.036 C 251.755 63.604,251.727 64.000,251.728 64.917 M243.717 64.333 C 243.717 64.837,243.748 65.044,243.786 64.792 C 243.824 64.540,243.824 64.127,243.786 63.875 C 243.748 63.623,243.717 63.829,243.717 64.333 M190.667 64.385 C 190.667 64.414,190.910 64.658,191.208 64.927 L 191.750 65.417 191.260 64.875 C 190.804 64.370,190.667 64.257,190.667 64.385 M223.833 71.533 C 223.787 74.989,223.807 77.760,223.877 77.690 C 223.947 77.620,223.984 74.792,223.960 71.406 L 223.916 65.250 223.833 71.533 M264.731 68.000 C 264.731 69.146,264.758 69.615,264.790 69.042 C 264.823 68.469,264.823 67.531,264.790 66.958 C 264.758 66.385,264.731 66.854,264.731 68.000 M296.379 68.500 C 296.379 68.912,296.411 69.081,296.451 68.875 C 296.491 68.669,296.491 68.331,296.451 68.125 C 296.411 67.919,296.379 68.087,296.379 68.500 M195.167 68.583 C 195.478 68.904,195.770 69.167,195.815 69.167 C 195.861 69.167,195.644 68.904,195.333 68.583 C 195.022 68.262,194.730 68.000,194.685 68.000 C 194.639 68.000,194.856 68.262,195.167 68.583 M243.387 70.500 C 243.387 71.096,243.417 71.340,243.454 71.042 C 243.491 70.744,243.491 70.256,243.454 69.958 C 243.417 69.660,243.387 69.904,243.387 70.500 M302.960 72.118 C 303.168 72.158,303.468 72.156,303.627 72.115 C 303.786 72.073,303.617 72.040,303.250 72.042 C 302.883 72.044,302.753 72.078,302.960 72.118 M283.960 73.618 C 284.168 73.658,284.468 73.656,284.627 73.615 C 284.786 73.573,284.617 73.540,284.250 73.542 C 283.883 73.544,283.753 73.578,283.960 73.618 M287.625 73.951 C 287.831 73.991,288.169 73.991,288.375 73.951 C 288.581 73.911,288.412 73.879,288.000 73.879 C 287.587 73.879,287.419 73.911,287.625 73.951 M373.000 73.885 C 373.000 73.914,373.244 74.158,373.542 74.427 L 374.083 74.917 373.594 74.375 C 373.138 73.870,373.000 73.757,373.000 73.885 M291.792 74.284 C 291.998 74.324,292.335 74.324,292.542 74.284 C 292.748 74.245,292.579 74.212,292.167 74.212 C 291.754 74.212,291.585 74.245,291.792 74.284 M298.794 74.785 C 299.001 74.824,299.301 74.823,299.460 74.781 C 299.620 74.739,299.450 74.707,299.083 74.709 C 298.717 74.711,298.586 74.745,298.794 74.785 M302.127 75.118 C 302.334 75.158,302.634 75.156,302.794 75.115 C 302.953 75.073,302.783 75.040,302.417 75.042 C 302.050 75.044,301.920 75.078,302.127 75.118 M243.052 76.583 C 243.053 77.133,243.084 77.338,243.121 77.039 C 243.158 76.739,243.157 76.289,243.119 76.039 C 243.081 75.788,243.051 76.033,243.052 76.583 M230.853 76.865 C 230.842 77.295,230.893 77.684,230.965 77.728 C 231.038 77.773,231.071 77.534,231.039 77.197 C 230.941 76.166,230.873 76.044,230.853 76.865 M264.392 78.750 C 264.392 79.575,264.420 79.934,264.455 79.547 C 264.490 79.160,264.490 78.485,264.456 78.047 C 264.422 77.609,264.393 77.925,264.392 78.750 M361.583 82.333 C 362.035 82.792,362.442 83.167,362.487 83.167 C 362.533 83.167,362.201 82.792,361.750 82.333 C 361.299 81.875,360.892 81.500,360.846 81.500 C 360.800 81.500,361.132 81.875,361.583 82.333 M366.160 87.208 C 366.850 87.944,367.000 88.077,367.000 87.951 C 367.000 87.925,366.644 87.568,366.208 87.160 L 365.417 86.417 366.160 87.208 M316.461 86.954 C 316.761 86.991,317.211 86.990,317.461 86.952 C 317.712 86.914,317.467 86.884,316.917 86.885 C 316.367 86.886,316.162 86.917,316.461 86.954 M319.458 86.954 C 319.756 86.991,320.244 86.991,320.542 86.954 C 320.840 86.917,320.596 86.887,320.000 86.887 C 319.404 86.887,319.160 86.917,319.458 86.954 M371.917 93.333 C 372.646 94.067,373.280 94.667,373.326 94.667 C 373.371 94.667,372.812 94.067,372.083 93.333 C 371.354 92.600,370.720 92.000,370.674 92.000 C 370.629 92.000,371.188 92.600,371.917 93.333 " stroke="none" fill="#409aca" fill-rule="evenodd"></path><path id="path5" d="M278.794 31.785 C 279.001 31.824,279.301 31.823,279.460 31.781 C 279.620 31.739,279.450 31.707,279.083 31.709 C 278.717 31.711,278.586 31.745,278.794 31.785 M295.125 33.284 C 295.331 33.324,295.669 33.324,295.875 33.284 C 296.081 33.245,295.912 33.212,295.500 33.212 C 295.087 33.212,294.919 33.245,295.125 33.284 M337.214 35.417 C 337.216 35.875,337.248 36.043,337.286 35.789 C 337.325 35.536,337.324 35.161,337.284 34.956 C 337.244 34.751,337.213 34.958,337.214 35.417 M339.125 37.287 C 339.423 37.324,339.910 37.324,340.208 37.287 C 340.506 37.250,340.262 37.220,339.667 37.220 C 339.071 37.220,338.827 37.250,339.125 37.287 M250.726 38.917 C 250.725 39.742,250.754 40.100,250.788 39.713 C 250.823 39.327,250.824 38.652,250.789 38.213 C 250.755 37.775,250.726 38.092,250.726 38.917 M265.398 41.750 C 265.398 42.942,265.425 43.407,265.457 42.785 C 265.489 42.162,265.489 41.187,265.457 40.618 C 265.424 40.049,265.398 40.558,265.398 41.750 M273.458 42.618 C 273.665 42.657,274.002 42.657,274.208 42.618 C 274.415 42.578,274.246 42.545,273.833 42.545 C 273.421 42.545,273.252 42.578,273.458 42.618 M122.212 43.500 C 122.212 43.913,122.245 44.081,122.284 43.875 C 122.324 43.669,122.324 43.331,122.284 43.125 C 122.245 42.919,122.212 43.087,122.212 43.500 M293.627 44.118 C 293.834 44.158,294.134 44.156,294.294 44.115 C 294.453 44.073,294.283 44.040,293.917 44.042 C 293.550 44.044,293.420 44.078,293.627 44.118 M230.559 52.583 C 230.559 53.408,230.587 53.767,230.622 53.380 C 230.657 52.993,230.657 52.318,230.623 51.880 C 230.588 51.442,230.560 51.758,230.559 52.583 M111.212 59.333 C 111.212 59.746,111.245 59.915,111.284 59.708 C 111.324 59.502,111.324 59.165,111.284 58.958 C 111.245 58.752,111.212 58.921,111.212 59.333 M244.042 59.917 C 244.044 60.283,244.078 60.414,244.118 60.206 C 244.158 59.999,244.156 59.699,244.115 59.540 C 244.073 59.380,244.040 59.550,244.042 59.917 M251.902 73.167 C 251.902 74.771,251.927 75.427,251.957 74.625 C 251.988 73.823,251.988 72.510,251.957 71.708 C 251.927 70.906,251.902 71.563,251.902 73.167 M294.544 74.453 C 294.797 74.491,295.172 74.490,295.377 74.451 C 295.582 74.411,295.375 74.380,294.917 74.381 C 294.458 74.382,294.291 74.415,294.544 74.453 M124.887 79.667 C 124.887 80.262,124.917 80.506,124.954 80.208 C 124.991 79.910,124.991 79.423,124.954 79.125 C 124.917 78.827,124.887 79.071,124.887 79.667 M242.879 80.000 C 242.879 80.412,242.911 80.581,242.951 80.375 C 242.991 80.169,242.991 79.831,242.951 79.625 C 242.911 79.419,242.879 79.587,242.879 80.000 M165.958 81.951 C 166.165 81.991,166.502 81.991,166.708 81.951 C 166.915 81.911,166.746 81.879,166.333 81.879 C 165.921 81.879,165.752 81.911,165.958 81.951 M169.292 81.951 C 169.498 81.991,169.835 81.991,170.042 81.951 C 170.248 81.911,170.079 81.879,169.667 81.879 C 169.254 81.879,169.085 81.911,169.292 81.951 M264.214 83.250 C 264.216 83.708,264.248 83.876,264.286 83.623 C 264.325 83.369,264.324 82.994,264.284 82.789 C 264.244 82.584,264.213 82.792,264.214 83.250 M124.904 90.333 C 124.904 92.212,124.928 92.981,124.958 92.042 C 124.987 91.102,124.987 89.565,124.958 88.625 C 124.928 87.685,124.904 88.454,124.904 90.333 " stroke="none" fill="#347cbc" fill-rule="evenodd"></path><path id="path6" d="M265.734 27.500 C 265.734 28.921,265.759 29.502,265.791 28.792 C 265.822 28.081,265.822 26.919,265.791 26.208 C 265.759 25.498,265.734 26.079,265.734 27.500 M250.396 29.667 C 250.396 30.721,250.423 31.152,250.456 30.625 C 250.490 30.098,250.490 29.235,250.456 28.708 C 250.423 28.181,250.396 28.613,250.396 29.667 M291.542 32.948 C 291.702 32.990,291.965 32.990,292.125 32.948 C 292.285 32.906,292.154 32.872,291.833 32.872 C 291.512 32.872,291.381 32.906,291.542 32.948 M244.392 39.167 C 244.392 39.946,244.420 40.265,244.455 39.875 C 244.490 39.485,244.490 38.848,244.455 38.458 C 244.420 38.069,244.392 38.387,244.392 39.167 M138.160 42.542 C 138.568 42.977,138.925 43.333,138.951 43.333 C 139.077 43.333,138.944 43.184,138.208 42.493 L 137.417 41.750 138.160 42.542 M143.500 47.552 C 143.500 47.581,143.744 47.825,144.042 48.094 L 144.583 48.583 144.094 48.042 C 143.638 47.537,143.500 47.423,143.500 47.552 M122.548 48.417 C 122.549 48.875,122.581 49.043,122.620 48.789 C 122.658 48.536,122.657 48.161,122.617 47.956 C 122.578 47.751,122.546 47.958,122.548 48.417 M184.667 50.219 C 184.667 50.248,184.910 50.491,185.208 50.760 L 185.750 51.250 185.260 50.708 C 184.804 50.203,184.667 50.090,184.667 50.219 M110.539 51.833 C 110.539 52.154,110.573 52.285,110.615 52.125 C 110.657 51.965,110.657 51.702,110.615 51.542 C 110.573 51.381,110.539 51.512,110.539 51.833 M122.879 53.000 C 122.879 53.413,122.911 53.581,122.951 53.375 C 122.991 53.169,122.991 52.831,122.951 52.625 C 122.911 52.419,122.879 52.587,122.879 53.000 M167.208 52.956 C 167.644 52.990,168.356 52.990,168.792 52.956 C 169.227 52.922,168.871 52.893,168.000 52.893 C 167.129 52.893,166.773 52.922,167.208 52.956 M110.875 55.417 C 110.877 55.783,110.911 55.914,110.951 55.706 C 110.991 55.499,110.990 55.199,110.948 55.040 C 110.906 54.880,110.874 55.050,110.875 55.417 M78.712 59.000 C 78.712 59.413,78.745 59.581,78.784 59.375 C 78.824 59.169,78.824 58.831,78.784 58.625 C 78.745 58.419,78.712 58.587,78.712 59.000 M78.714 61.250 C 78.716 61.708,78.748 61.876,78.786 61.623 C 78.825 61.369,78.824 60.994,78.784 60.789 C 78.744 60.584,78.713 60.792,78.714 61.250 M137.328 61.958 L 136.417 62.917 137.375 62.006 C 137.902 61.505,138.333 61.073,138.333 61.047 C 138.333 60.924,138.174 61.068,137.328 61.958 M175.577 63.708 L 174.750 64.583 175.625 63.756 C 176.106 63.301,176.500 62.908,176.500 62.881 C 176.500 62.757,176.346 62.895,175.577 63.708 M131.740 67.875 L 131.250 68.417 131.792 67.927 C 132.090 67.658,132.333 67.414,132.333 67.385 C 132.333 67.257,132.196 67.370,131.740 67.875 M164.073 68.208 L 163.583 68.750 164.125 68.260 C 164.423 67.991,164.667 67.748,164.667 67.719 C 164.667 67.590,164.529 67.703,164.073 68.208 M77.387 85.000 C 77.387 85.596,77.417 85.840,77.454 85.542 C 77.491 85.244,77.491 84.756,77.454 84.458 C 77.417 84.160,77.387 84.404,77.387 85.000 M165.240 91.750 C 165.240 94.317,165.263 95.343,165.291 94.032 C 165.320 92.720,165.319 90.620,165.291 89.365 C 165.263 88.110,165.240 89.183,165.240 91.750 M91.542 99.790 C 92.160 99.822,93.173 99.822,93.792 99.790 C 94.410 99.758,93.904 99.732,92.667 99.732 C 91.429 99.732,90.923 99.758,91.542 99.790 " stroke="none" fill="#2c70b4" fill-rule="evenodd"></path><path id="path7" d="M225.208 18.847 C 225.406 18.962,225.594 18.962,225.792 18.847 C 226.030 18.708,225.976 18.677,225.500 18.677 C 225.024 18.677,224.970 18.708,225.208 18.847 " stroke="none" fill="#142c5c" fill-rule="evenodd"></path><path id="path8" d="" stroke="none" fill="#1009428" fill-rule="evenodd"></path></g></svg>